<svg xmlns="http://www.w3.org/2000/svg" width="20" height="15" viewBox="0 0 18 13.5">
  <defs>
    <style>
      .cls-1 {
        fill: #fff;
        fill-rule: evenodd;
      }
    </style>
  </defs>
  <path id="_" data-name="" class="cls-1" d="M1118.37,124.618a1.639,1.639,0,0,0-1.2.492,1.617,1.617,0,0,0-.49,1.2V136.43a1.617,1.617,0,0,0,.49,1.195,1.636,1.636,0,0,0,1.2.493h14.62a1.636,1.636,0,0,0,1.2-.493,1.617,1.617,0,0,0,.49-1.195V126.305a1.617,1.617,0,0,0-.49-1.2,1.639,1.639,0,0,0-1.2-.492h-14.62Zm14.62,3.128q-1.23.985-4.74,3.727a3.463,3.463,0,0,1-.5.439,8.311,8.311,0,0,1-.73.563c-0.17.105-.39,0.228-0.65,0.369a1.234,1.234,0,0,1-1.38,0c-0.27-.141-0.48-0.264-0.65-0.369a8.311,8.311,0,0,1-.73-0.563,3.463,3.463,0,0,1-.5-0.439q-3.51-2.742-4.74-3.727v-1.441h14.62v1.441Zm-14.62,2.145q1.23,0.984,3.69,2.918a6.405,6.405,0,0,1,.51.4c0.29,0.246.52,0.428,0.68,0.545s0.4,0.27.69,0.457a3.13,3.13,0,0,0,.88.405,3.168,3.168,0,0,0,.86.123,2.976,2.976,0,0,0,.84-0.123,3.957,3.957,0,0,0,.88-0.387c0.31-.176.54-0.322,0.71-0.44s0.39-.3.68-0.562a4.593,4.593,0,0,1,.51-0.422q2.46-1.933,3.69-2.918v6.539h-14.62v-6.539Z" transform="translate(-1116.69 -124.625)"/>
</svg>
