<svg xmlns="http://www.w3.org/2000/svg" viewBox="0 0 30 21.18"><defs><style>.cls-1{fill:#a6cdd5;}</style></defs><title>nav_cloud</title><g id="レイヤー_2" data-name="レイヤー 2"><g id="レイヤー_1-2" data-name="レイヤー 1"><g id="レイヤー_2-2" data-name="レイヤー 2"><g id="レイヤー_2_画像" data-name="レイヤー 2 画像"><path class="cls-1" d="M0,11.1v-.87a3,3,0,0,1,3.21-1.7c1.59.09,3.2.05,4.8,0a2.07,2.07,0,0,0,2.26-1.86,2.09,2.09,0,0,0,0-.25,2.15,2.15,0,0,0-2-2.25H8.12c-.92-.08-1.84,0-2.77,0-1.68,0-2.59-.75-2.59-2.06S3.68,0,5.36,0H20.07c1.69,0,2.6.74,2.61,2.05s-.91,2.05-2.57,2.07H16.32A2.13,2.13,0,0,0,14.24,6.3a.86.86,0,0,0,0,.16,2.15,2.15,0,0,0,2.23,2H27.54c1.57,0,2.43.77,2.46,2.07s-.86,2.13-2.51,2.16H26c-1.64,0-2.53.79-2.54,2.15s.87,2.21,2.47,2.24c1.1,0,2.08.2,2.48,1.34a2.28,2.28,0,0,1-1.05,2.76H7c-.72-.87-1.4-1.77-.78-3s1.7-1.1,2.78-1.1h7.72c1.8,0,2.83-.83,2.84-2.22s-1-2.19-2.81-2.19c-4.52,0-9-.05-13.55,0A3,3,0,0,1,0,11.1Z"/></g></g></g></g></svg>