<svg xmlns="http://www.w3.org/2000/svg" viewBox="0 0 30 18.8"><defs><style>.cls-1{fill:#a6ddc4;}</style></defs><title>nav_fan</title><g id="レイヤー_2" data-name="レイヤー 2"><g id="レイヤー_1-2" data-name="レイヤー 1"><g id="レイヤー_2-2" data-name="レイヤー 2"><g id="レイヤー_1_画像" data-name="レイヤー 1 画像"><path class="cls-1" d="M15.41,17.32l.75.8c-.91.91-1.49.9-2.36,0l.81-.76c-2-1.2-3.91-2.4-5.88-3.46C6,12.43,3.3,11.08.58,9.72c-.74-.37-.69-.78-.31-1.39A16.49,16.49,0,0,1,15.27,0a16.36,16.36,0,0,1,14.29,8.1c.68,1.07.62,1.2-.51,1.78-2.56,1.31-5.15,2.57-7.68,3.93C19.36,14.91,17.44,16.12,15.41,17.32ZM14.89,15h.23c.19-1.4.37-2.8.57-4.25H14.26C14.48,12.25,14.68,13.64,14.89,15Zm1.29-4.3c-.22,1.54-.43,3-.64,4.44l.21,0c.59-1.32,1.17-2.64,1.8-4.06Zm-2.37,0-1.38.47c.59,1.33,1.15,2.56,1.7,3.8l.26-.09Zm-.75,5.19.15-.19-2.75-3.27L9.6,13.57Zm3.24-.78.22.18,2.66-3.16L18,11.38Zm-5.49-3,2.72,3.24.21-.14L12,11.34Zm6.1,3.41.22.21,3.27-2.21-.9-1.1Z"/></g></g></g></g></svg>