<svg xmlns="http://www.w3.org/2000/svg" viewBox="0 0 30 26.94"><defs><style>.cls-1{fill:#d2d797;}</style></defs><title>nav_cloth</title><g id="レイヤー_2" data-name="レイヤー 2"><g id="レイヤー_1-2" data-name="レイヤー 1"><g id="レイヤー_2-2" data-name="レイヤー 2"><g id="レイヤー_1_画像" data-name="レイヤー 1 画像"><path class="cls-1" d="M7.23,22.33V20.55l-1.72-.21V12.49H1.31C.38,12.54,0,12.25,0,11.25Q.08,7.3,0,3.34c0-1,.38-1.26,1.31-1.24H10c.75,0,1.16-.18,1.26-1S12,0,12.85,0c1.43.06,2.86.06,4.3,0C18,0,18.59.27,18.7,1.16s.51,1,1.26,1h8.6c1,0,1.47.25,1.44,1.37-.07,2.55-.07,5.12,0,7.67,0,1.1-.39,1.43-1.43,1.37-1.31-.06-2.62,0-4.05,0v7.84l-1.76.21v1.79h0l-1.55-.12c-.31-1.94-.32-2-2-1.52v1.67H17.66a6.91,6.91,0,0,1,0-.91c.08-.77-.26-1-1-1s-.92.34-.87,1v.92H14.17v-.92c.05-.65-.13-1-.88-1s-1.09.21-1,1a7.06,7.06,0,0,1,0,.92H10.68V20.57c-1.82-.24-1.82-.24-1.87,1.29v.46H7.23Z"/><path class="cls-1" d="M22.76,22.33h1.7c0,1.34.05,2.64,0,3.93,0,.24-.57.63-.88.63Q15,27,6.45,26.88a1.18,1.18,0,0,1-.88-.74c-.1-1.22-.05-2.45-.05-3.81H7.23V24H8.94l-.09-1.64h1.9V24h1.66V22.29h1.9v1.64H16V22.29h1.9l-.09,1.64h1.75V22.29h1.63l.22,1.61h1.68V22.29Z"/></g></g></g></g></svg>