<svg xmlns="http://www.w3.org/2000/svg" viewBox="0 0 30.02 29.25"><defs><style>.cls-1{fill:#d3a4da;}</style></defs><title>nav_flower</title><g id="レイヤー_2" data-name="レイヤー 2"><g id="レイヤー_1-2" data-name="レイヤー 1"><g id="レイヤー_2-2" data-name="レイヤー 2"><g id="レイヤー_1_画像" data-name="レイヤー 1 画像"><path class="cls-1" d="M26.21,19.09C27.45,23,26.68,26,24,27.89s-5.7,1.71-9-.62c-3.11,2.37-6.37,2.83-9.59.17-2.32-1.91-2.85-4.81-1.64-8.3-.38-.3-.81-.62-1.22-.95a6.91,6.91,0,0,1-2.2-7.68A6.71,6.71,0,0,1,6.72,5.92,1.52,1.52,0,0,0,8.48,4.68v0A6.86,6.86,0,0,1,15,0a7,7,0,0,1,6.58,4.73c.25.72.4,1.18,1.35,1.19a6.79,6.79,0,0,1,6.78,4.81,6.91,6.91,0,0,1-2.92,7.94ZM16,13.82l.83-3.41-.61-.17L15,13.5l-1.32-3.27-.59.2.85,3.38L11,12l-.34.52,2.72,2.23L9.85,15v.72l3.49.16L10.59,18l.39.51,3-1.86-.86,3.4.62.18L15,17l1.28,3.31.62-.22-.84-3.35,3,1.82.34-.51-2.67-2.19,3.45-.29v-.64H16.91l-.07-.36,2.52-2.08L19,12Z"/></g></g></g></g></svg>