<?xml version="1.0" encoding="utf-8"?>
<!-- Generator: Adobe Illustrator 25.2.0, SVG Export Plug-In . SVG Version: 6.00 Build 0)  -->
<svg version="1.1" id="Layer_1" xmlns="http://www.w3.org/2000/svg" xmlns:xlink="http://www.w3.org/1999/xlink" x="0px" y="0px"
	 viewBox="0 0 128 128" style="enable-background:new 0 0 128 128;" xml:space="preserve">
<style type="text/css">
	.st0{fill:#FFFFFF;}
</style>
<g>
	<polygon class="st0" points="13,127 113,127 113,33 113,25 89,25 89,1 81,1 13,1 13,57 21,57 21,9 81,9 81,33 105,33 105,119 
		13,119 	"/>
	<path class="st0" d="M24.5,94C30.8,94,36,88.8,36,82.5S30.8,71,24.5,71H13v34h8V94H24.5z M21,79h3.5c1.9,0,3.5,1.6,3.5,3.5
		S26.4,86,24.5,86H21V79z"/>
	<polygon class="st0" points="97,79 97,71 77,71 77,105 85,105 85,94 91,94 91,86 85,86 85,79 	"/>
	<path class="st0" d="M69,88c0-9.4-7.6-17-17-17h-8v34h8C61.4,105,69,97.4,69,88z M52,97V79c5,0,9,4,9,9S57,97,52,97z"/>
</g>
</svg>
