<svg xmlns="http://www.w3.org/2000/svg" viewBox="0 0 30 24.65"><defs><style>.cls-1{fill:#8fb3d7;}</style></defs><title>nav_moutain</title><g id="レイヤー_2" data-name="レイヤー 2"><g id="レイヤー_1-2" data-name="レイヤー 1"><g id="レイヤー_2-2" data-name="レイヤー 2"><g id="レイヤー_1_画像" data-name="レイヤー 1 画像"><path class="cls-1" d="M14.88,24.64H1.59A5.89,5.89,0,0,1,0,24.14,5,5,0,0,1,.54,22.6,29.39,29.39,0,0,0,7.2,2.26C7.1,0,7.14,0,9.43,0H21.21c1.26,0,1.7.41,1.62,1.68a29.28,29.28,0,0,0,6.7,21c.3.37.59,1.08.42,1.4a1.8,1.8,0,0,1-1.37.55C24,24.66,19.45,24.64,14.88,24.64ZM11,8l2-2.74L15,8.1l2-2.83L19,8c2-2.41,2.35-3.6,1.72-6H9.18A5.91,5.91,0,0,0,11,8Z"/></g></g></g></g></svg>