<?xml version="1.0" encoding="utf-8"?>
<!-- Generator: Adobe Illustrator 24.1.1, SVG Export Plug-In . SVG Version: 6.00 Build 0)  -->
<svg version="1.1" id="レイヤー_1" xmlns="http://www.w3.org/2000/svg" xmlns:xlink="http://www.w3.org/1999/xlink" x="0px"
	 y="0px" viewBox="0 0 320 76" style="enable-background:new 0 0 320 76;" xml:space="preserve">
<style type="text/css">
	.st0{fill:#231815;}
	.st1{fill:#55B7CC;}
	.st2{fill:#004098;}
</style>
<g id="レイヤー_2_1_">
	<g id="レイヤー_1-2">
		<polygon points="82.6,29.7 76.6,55.3 70.5,29.7 65.2,29.7 65.2,59.4 68.2,59.4 68.2,32.9 74.7,59.4 78.4,59.4 85,32.9 85,59.4 
			87.9,59.4 87.9,29.7 		"/>
		<polygon points="141.4,44.1 148.6,29.7 145.3,29.7 139.8,40.9 134.2,29.7 130.9,29.7 138.1,44.1 130.5,59.4 133.8,59.4 
			139.8,47.4 145.7,59.4 149,59.4 		"/>
		<polygon points="159.2,29.7 159.2,32.4 167.1,32.4 167.1,59.4 170,59.4 170,32.4 177.6,32.4 177.6,29.7 		"/>
		<polygon points="101.6,29.7 101.6,59.4 118,59.4 118,56.8 104.5,56.8 104.5,45.6 116.6,45.6 116.6,42.9 104.5,42.9 104.5,32.4 
			118,32.4 118,29.7 		"/>
		<path class="st0" d="M190.4,30.3h1.3l1,3.7l0,0l1-3.7h1.3v4.9h-0.8v-4.1l0,0l-1.1,4.1h-0.8l-1.1-4.1l0,0v4.1h-0.8L190.4,30.3
			L190.4,30.3z"/>
		<path class="st0" d="M196.9,30.3h0.8v4.9h-0.8V30.3z"/>
		<path class="st0" d="M199.5,30.3h1l1.6,3.7l0,0v-3.7h0.8v4.9h-1l-1.6-3.7l0,0v3.7h-0.8V30.3z"/>
		<path class="st0" d="M204.7,30.3h0.8v4.9h-0.8V30.3z"/>
		<path class="st0" d="M209.6,31.2c-0.3-0.1-0.6-0.2-0.9-0.2c-0.3,0-0.6,0.2-0.7,0.5c0,0.1,0,0.1,0,0.2c0,0.9,1.8,0.5,1.8,2.2
			c0.1,0.8-0.5,1.4-1.3,1.5c-0.1,0-0.1,0-0.2,0c-0.4,0-0.7-0.1-1.1-0.2l0.1-0.9c0.3,0.2,0.6,0.3,0.9,0.3c0.4,0,0.7-0.3,0.7-0.6l0,0
			c0-0.9-1.8-0.6-1.8-2.2c-0.1-0.8,0.5-1.4,1.2-1.5c0.1,0,0.2,0,0.2,0c0.3,0,0.7,0.1,1,0.2L209.6,31.2z"/>
		<path class="st0" d="M212.1,31.1H211v-0.8h3.2v0.8H213v4.2h-0.8L212.1,31.1z"/>
		<path class="st0" d="M215.6,30.3h0.9c0.9,0,2,0,2,1.3c0,0.5-0.3,1-0.9,1.2l0,0c0.2,0,0.4,0.3,0.4,0.5l0.7,1.9h-0.9l-0.5-1.5
			c-0.1-0.4-0.2-0.5-0.6-0.5h-0.3v2.1h-0.8L215.6,30.3z M216.4,32.4h0.3c0.4,0,0.9-0.1,0.9-0.7s-0.5-0.6-0.9-0.6h-0.3V32.4z"/>
		<path class="st0" d="M221.1,33.3l-1.5-3h1l1,2.1l1-2.1h0.9l-1.5,3v2h-0.8L221.1,33.3z"/>
		<path class="st0" d="M228.7,30.2c1.3,0,2.1,1,2.1,2.5s-0.7,2.6-2.1,2.6c-1.3,0-2.1-1.1-2.1-2.6C226.7,31.2,227.4,30.2,228.7,30.2z
			 M228.7,34.5c0.9,0,1.2-0.9,1.2-1.8c0-0.9-0.3-1.8-1.2-1.8s-1.2,0.9-1.2,1.8C227.5,33.6,227.8,34.5,228.7,34.5z"/>
		<path class="st0" d="M232.4,30.3h2.3v0.8h-1.5v1.2h1.4v0.8h-1.4v2.2h-0.8V30.3z"/>
		<path class="st0" d="M238.3,30.3h2.5v0.8h-1.6v1.2h1.5v0.8h-1.5v1.4h1.6v0.8h-2.5V30.3z"/>
		<path class="st0" d="M242.6,30.3h1.2c1.3,0,2.4,0.5,2.4,2.5s-1.1,2.5-2.4,2.5h-1.2V30.3z M243.4,34.5h0.5c0.7,0,1.4-0.6,1.4-1.7
			c0-1.1-0.7-1.7-1.4-1.7h-0.5V34.5z"/>
		<path class="st0" d="M247.5,30.3h0.8v2.9c0,0.8,0.2,1.4,0.9,1.4s0.9-0.6,0.9-1.4v-2.9h0.8v3.2c0,1.3-0.6,1.9-1.7,1.9
			s-1.7-0.5-1.7-1.9V30.3z"/>
		<path class="st0" d="M255.6,35.2c-0.3,0.1-0.6,0.2-1,0.2c-1.4,0-2.3-0.8-2.3-2.5s0.9-2.6,2.3-2.6c0.3,0,0.7,0.1,1,0.2l-0.1,0.8
			c-0.3-0.2-0.6-0.3-0.9-0.3c-0.9,0-1.4,0.8-1.4,1.8c0,1,0.5,1.8,1.4,1.8c0.3,0,0.6-0.1,0.9-0.2L255.6,35.2z"/>
		<path class="st0" d="M258.2,30.3h1l1.6,4.9h-0.9l-0.4-1.1h-1.7l-0.4,1.1h-0.9L258.2,30.3z M258.7,31.3L258.7,31.3l-0.6,2h1.2
			L258.7,31.3z"/>
		<path class="st0" d="M262.7,31.1h-1.2v-0.8h3.3v0.8h-1.2v4.2h-0.8L262.7,31.1z"/>
		<path class="st0" d="M266.2,30.3h0.8v4.9h-0.8V30.3z"/>
		<path class="st0" d="M270.7,30.2c1.3,0,2.1,1,2.1,2.5s-0.7,2.6-2.1,2.6s-2.1-1.1-2.1-2.6C268.7,31.2,269.4,30.2,270.7,30.2z
			 M270.7,34.5c0.9,0,1.2-0.9,1.2-1.8c0-0.9-0.3-1.8-1.2-1.8c-0.9,0-1.2,0.9-1.2,1.8C269.5,33.6,269.9,34.5,270.7,34.5z"/>
		<path class="st0" d="M274.2,30.3h1l1.6,3.7l0,0v-3.7h0.8v4.9h-1l-1.6-3.7l0,0v3.7h-0.8V30.3z"/>
		<path class="st0" d="M279.1,34.2h0.9l-0.6,1.8h-0.7L279.1,34.2z"/>
		<path class="st0" d="M193.5,47c-0.3,0.1-0.6,0.1-1,0.1c-1.4,0-2.3-0.8-2.3-2.5s0.9-2.6,2.3-2.6c0.3,0,0.6,0.1,0.9,0.2l-0.1,0.8
			c-0.3-0.2-0.6-0.3-0.9-0.3c-0.9,0-1.4,0.8-1.4,1.8s0.5,1.8,1.4,1.8c0.3,0,0.6-0.1,0.9-0.2L193.5,47z"/>
		<path class="st0" d="M194.9,42.1h0.9V45c0,0.8,0.2,1.4,0.9,1.4s0.9-0.6,0.9-1.4v-2.9h0.8v3.2c0,1.3-0.6,1.9-1.7,1.9
			c-1.1,0-1.7-0.5-1.7-1.9L194.9,42.1z"/>
		<path class="st0" d="M200.2,42.1h0.8v4.2h1.6v0.8h-2.5L200.2,42.1L200.2,42.1z"/>
		<path class="st0" d="M204.9,42.9h-1.2v-0.8h3.2v0.8h-1.2V47h-0.8V42.9z"/>
		<path class="st0" d="M208.3,42.1h0.8V45c0,0.8,0.2,1.4,0.9,1.4s0.9-0.6,0.9-1.4v-2.9h0.8v3.2c0,1.3-0.6,1.9-1.7,1.9
			c-1.1,0-1.7-0.5-1.7-1.9V42.1z"/>
		<path class="st0" d="M213.6,42.1h0.9c0.9,0,2,0,2,1.3c0,0.5-0.3,1-0.8,1.1l0,0c0.2,0,0.4,0.3,0.4,0.5l0.7,1.9h-0.9l-0.5-1.5
			c-0.1-0.4-0.2-0.5-0.6-0.5h-0.3V47h-0.8L213.6,42.1z M214.4,44.2h0.3c0.4,0,0.9-0.1,0.9-0.7c0-0.6-0.5-0.6-0.9-0.6h-0.3V44.2z"/>
		<path class="st0" d="M218.2,42.1h2.5v0.8H219v1.2h1.5v0.8H219v1.4h1.6V47h-2.5L218.2,42.1L218.2,42.1z"/>
		<path class="st0" d="M222.1,46h0.9l-0.5,1.8h-0.7L222.1,46z"/>
		<path class="st0" d="M228.9,43c-0.3-0.1-0.6-0.2-0.9-0.2c-0.3,0-0.6,0.2-0.7,0.5c0,0.1,0,0.1,0,0.2c0,0.9,1.8,0.5,1.8,2.1
			c0.1,0.8-0.5,1.4-1.3,1.5c-0.1,0-0.2,0-0.3,0c-0.4,0-0.7-0.1-1.1-0.2l0.1-0.9c0.3,0.2,0.6,0.3,0.9,0.3c0.4,0,0.7-0.3,0.7-0.6l0,0
			c0-0.9-1.8-0.6-1.8-2.2c-0.1-0.8,0.5-1.4,1.2-1.5c0.1,0,0.2,0,0.2,0c0.3,0,0.7,0.1,1,0.2L228.9,43z"/>
		<path class="st0" d="M230.8,42.1h1.1c0.9,0,1.8,0.3,1.8,1.5c0.1,0.8-0.5,1.5-1.3,1.6c-0.1,0-0.2,0-0.3,0h-0.4V47h-0.8L230.8,42.1z
			 M231.7,44.4h0.3c0.4,0,0.8-0.2,0.8-0.7c0-0.4-0.3-0.7-0.6-0.8c-0.1,0-0.1,0-0.2,0h-0.3V44.4z"/>
		<path class="st0" d="M236.9,42c1.3,0,2.1,1,2.1,2.5s-0.7,2.6-2.1,2.6s-2.1-1-2.1-2.5S235.5,42,236.9,42z M236.9,46.3
			c0.9,0,1.2-0.9,1.2-1.8c0-0.9-0.3-1.8-1.2-1.8s-1.2,0.9-1.2,1.8S236,46.4,236.9,46.3L236.9,46.3z"/>
		<path class="st0" d="M240.3,42.1h0.9c0.9,0,2,0,2,1.3c0,0.5-0.3,1-0.9,1.1l0,0c0.2,0,0.4,0.3,0.4,0.5l0.7,1.9h-0.9l-0.5-1.5
			c-0.1-0.4-0.2-0.5-0.6-0.5h-0.3V47h-0.8L240.3,42.1z M241.1,44.2h0.3c0.4,0,0.9-0.1,0.9-0.7c0-0.6-0.5-0.6-0.9-0.6h-0.3V44.2z"/>
		<path class="st0" d="M245.7,42.9h-1.2v-0.8h3.2v0.8h-1.2V47h-0.8V42.9z"/>
		<path class="st0" d="M251.4,43c-0.3-0.1-0.6-0.2-0.9-0.2c-0.3,0-0.6,0.2-0.7,0.5c0,0.1,0,0.1,0,0.2c0,0.9,1.8,0.5,1.8,2.1
			c0.1,0.8-0.5,1.4-1.3,1.5c-0.1,0-0.2,0-0.3,0c-0.4,0-0.7-0.1-1.1-0.2L249,46c0.3,0.2,0.6,0.3,0.9,0.3c0.4,0,0.7-0.3,0.7-0.6l0,0
			c0-0.9-1.8-0.6-1.8-2.2c-0.1-0.8,0.5-1.4,1.2-1.5c0.1,0,0.2,0,0.2,0c0.3,0,0.7,0.1,1,0.2L251.4,43z"/>
		<path class="st0" d="M253.1,46h0.9l-0.6,1.8h-0.7L253.1,46z"/>
		<path class="st0" d="M192.7,54.8c-0.3-0.1-0.6-0.2-0.9-0.2c-0.3,0-0.6,0.2-0.7,0.5c0,0.1,0,0.1,0,0.2c0,0.9,1.8,0.5,1.8,2.2
			c0.1,0.8-0.5,1.4-1.3,1.5c-0.1,0-0.2,0-0.3,0c-0.4,0-0.7-0.1-1.1-0.2l0.1-0.9c0.3,0.2,0.6,0.3,1,0.3s0.7-0.3,0.7-0.6l0,0
			c0-0.9-1.8-0.6-1.8-2.2c-0.1-0.8,0.5-1.4,1.2-1.5c0.1,0,0.2,0,0.3,0c0.3,0,0.7,0.1,1,0.2V54.8z"/>
		<path class="st0" d="M197.5,58.8c-0.3,0.1-0.6,0.1-1,0.1c-1.4,0-2.3-0.8-2.3-2.5s0.9-2.6,2.3-2.6c0.3,0,0.7,0.1,1,0.2l-0.1,0.8
			c-0.3-0.2-0.6-0.3-0.9-0.3c-0.9,0-1.4,0.8-1.4,1.8s0.5,1.8,1.4,1.8c0.3,0,0.6-0.1,0.9-0.2L197.5,58.8z"/>
		<path class="st0" d="M199,53.9h0.8v4.9H199V53.9z"/>
		<path class="st0" d="M201.7,53.9h2.5v0.8h-1.6v1.2h1.5v0.8h-1.5v1.4h1.6v0.8h-2.5V53.9z"/>
		<path class="st0" d="M205.9,53.9h1l1.6,3.7l0,0v-3.7h0.8v4.9h-1l-1.6-3.7l0,0v3.7h-0.8V53.9z"/>
		<path class="st0" d="M214,58.8c-0.3,0.1-0.6,0.1-1,0.1c-1.4,0-2.3-0.8-2.3-2.5s0.9-2.6,2.3-2.6c0.3,0,0.7,0.1,1,0.2l-0.1,0.8
			c-0.3-0.2-0.6-0.3-0.9-0.3c-0.9,0-1.4,0.8-1.4,1.8s0.5,1.8,1.4,1.8c0.3,0,0.6-0.1,0.9-0.2L214,58.8z"/>
		<path class="st0" d="M215.6,53.9h2.5v0.8h-1.6v1.2h1.5v0.8h-1.5v1.4h1.6v0.8h-2.5V53.9z"/>
		<path class="st0" d="M223.1,53.9h0.9l1.6,4.9h-0.9l-0.4-1.1h-1.7l-0.4,1.1h-0.9L223.1,53.9z M223.5,54.9L223.5,54.9l-0.6,2h1.2
			L223.5,54.9z"/>
		<path class="st0" d="M226.9,53.9h1l1.6,3.7l0,0v-3.7h0.8v4.9h-1l-1.6-3.7l0,0v3.7h-0.9L226.9,53.9L226.9,53.9z"/>
		<path class="st0" d="M232.1,53.9h1.2c1.3,0,2.4,0.5,2.4,2.5s-1.1,2.5-2.4,2.5h-1.2V53.9z M232.9,58.1h0.5c0.7,0,1.4-0.6,1.4-1.7
			c0-1.1-0.7-1.7-1.4-1.7h-0.5V58.1z"/>
		<path class="st0" d="M240.1,54.7h-1.2v-0.8h3.2v0.8h-1.2v4.2h-0.8V54.7z"/>
		<path class="st0" d="M243.6,53.9h2.5v0.8h-1.6v1.2h1.5v0.8h-1.5v1.4h1.6v0.8h-2.5V53.9z"/>
		<path class="st0" d="M250.9,58.8c-0.3,0.1-0.6,0.1-1,0.1c-1.4,0-2.3-0.8-2.3-2.5s0.9-2.6,2.3-2.6c0.3,0,0.7,0.1,1,0.2l-0.1,0.8
			c-0.3-0.2-0.6-0.3-0.9-0.3c-0.9,0-1.4,0.8-1.4,1.8s0.5,1.8,1.4,1.8c0.3,0,0.6-0.1,0.9-0.2L250.9,58.8z"/>
		<path class="st0" d="M252.4,53.9h0.8v2h1.7v-2h0.8v4.9h-0.8v-2.2h-1.7v2.2h-0.8V53.9z"/>
		<path class="st0" d="M257.6,53.9h1l1.6,3.7l0,0v-3.7h0.8v4.9h-1l-1.6-3.7l0,0v3.7h-0.8V53.9z"/>
		<path class="st0" d="M264.5,53.8c1.3,0,2.1,1,2.1,2.5s-0.7,2.6-2.1,2.6s-2.1-1.1-2.1-2.6S263.2,53.8,264.5,53.8z M264.5,58.1
			c0.9,0,1.2-0.9,1.2-1.8c0-0.9-0.3-1.8-1.2-1.8s-1.2,0.9-1.2,1.8C263.3,57.2,263.6,58.1,264.5,58.1z"/>
		<path class="st0" d="M268.1,53.9h0.8v4.2h1.6v0.8H268v-5H268.1z"/>
		<path class="st0" d="M273.6,53.8c1.3,0,2.1,1,2.1,2.5s-0.7,2.6-2.1,2.6c-1.3,0-2.1-1.1-2.1-2.6S272.3,53.8,273.6,53.8z
			 M273.6,58.1c0.9,0,1.2-0.9,1.2-1.8c0-0.9-0.3-1.8-1.2-1.8s-1.2,0.9-1.2,1.8C272.4,57.2,272.8,58.1,273.6,58.1z"/>
		<path class="st0" d="M280.5,54.8c-0.3-0.2-0.7-0.3-1.1-0.3c-1,0-1.5,0.8-1.5,1.8s0.5,1.8,1.4,1.8c0.2,0,0.4,0,0.6-0.1v-1.3H279V56
			h1.7v2.7c-0.4,0.2-0.9,0.2-1.4,0.3c-1.4,0-2.3-0.8-2.3-2.5s0.9-2.6,2.3-2.6c0.4,0,0.8,0.1,1.2,0.2L280.5,54.8z"/>
		<path class="st0" d="M283.2,56.9l-1.5-3h1l1,2.1l1-2.1h0.9l-1.5,3v1.9h-0.8L283.2,56.9z"/>
		<path class="st0" d="M286.4,56.8V56h1.6v0.8H286.4z"/>
		<path class="st0" d="M289.3,58c0.1,0.1,0.3,0.1,0.4,0.1c0.6,0,0.6-0.5,0.6-0.9v-3.3h0.8v3.8c0.1,0.6-0.4,1.2-1.1,1.3h-0.1
			c-0.2,0-0.4,0-0.6-0.1L289.3,58z"/>
		<path class="st0" d="M294,53.9h1l1.6,4.9h-0.9l-0.4-1.1h-1.7l-0.4,1.1h-0.9L294,53.9z M294.5,54.9L294.5,54.9l-0.6,2h1.2
			L294.5,54.9z"/>
		<path class="st0" d="M297.9,53.9h1c0.9,0,1.8,0.3,1.8,1.5c0.1,0.8-0.5,1.5-1.3,1.6c-0.1,0-0.2,0-0.3,0h-0.4v1.9h-0.8L297.9,53.9z
			 M298.7,56.2h0.3c0.4,0,0.8-0.2,0.8-0.7c0-0.4-0.2-0.7-0.6-0.8c-0.1,0-0.1,0-0.2,0h-0.3L298.7,56.2L298.7,56.2z"/>
		<path class="st0" d="M302.8,53.9h1l1.6,4.9h-0.9l-0.4-1.1h-1.7l-0.4,1.1h-0.9L302.8,53.9z M303.3,54.9L303.3,54.9l-0.6,2h1.2
			L303.3,54.9z"/>
		<path class="st0" d="M306.6,53.9h1l1.6,3.7l0,0v-3.7h0.8v4.9h-1l-1.6-3.7l0,0v3.7h-0.8V53.9z"/>
		<path class="st1" d="M28.5,40.5l-8.2-14.2c-3,1.8-5.5,4.3-7.3,7.3l14.2,8.2C27.5,41.3,28,40.9,28.5,40.5z"/>
		<path class="st1" d="M26.9,42.4l-14.2-8.2C11,37.3,10,40.7,10,44.3h16.4C26.4,43.6,26.6,43,26.9,42.4z"/>
		<path class="st1" d="M26.4,44.9H10c0,3.5,1,7,2.7,10l14.2-8.2C26.6,46.2,26.4,45.5,26.4,44.9z"/>
		<path class="st1" d="M30.9,39.7V23.3c-3.5,0-7,1-10,2.7l8.2,14.2C29.7,39.9,30.3,39.7,30.9,39.7z"/>
		<path class="st1" d="M36.1,44.3h16.4c0-3.5-1-7-2.7-10l-14.2,8.2C35.9,43,36.1,43.6,36.1,44.3z"/>
		<path class="st1" d="M27.2,47.3L13,55.5c1.8,3,4.3,5.5,7.3,7.3l8.2-14.2C28,48.3,27.5,47.8,27.2,47.3z"/>
		<path class="st1" d="M35.3,41.9l14.2-8.2c-1.8-3-4.3-5.5-7.3-7.3L34,40.5C34.5,40.9,35,41.3,35.3,41.9z"/>
		<path class="st1" d="M33.4,40.2L41.6,26c-3.1-1.7-6.5-2.6-10-2.7v16.4C32.2,39.7,32.8,39.9,33.4,40.2z"/>
		<path class="st1" d="M31.6,49.4v16.4c3.5,0,6.9-1,10-2.7l-8.2-14.2C32.8,49.2,32.2,49.4,31.6,49.4z"/>
		<path class="st1" d="M36.1,44.9c0,0.6-0.2,1.3-0.5,1.8l14.2,8.2c1.7-3.1,2.6-6.5,2.7-10H36.1z"/>
		<path class="st1" d="M29.1,48.9l-8.2,14.2c3.1,1.7,6.5,2.6,10,2.7V49.4C30.3,49.4,29.7,49.2,29.1,48.9z"/>
		<path class="st1" d="M34,48.6l8.2,14.2c3-1.8,5.5-4.3,7.3-7.3l-14.2-8.2C35,47.8,34.5,48.3,34,48.6z"/>
		<path class="st2" d="M31.2,20.8c2.7,0,4.9-2.2,4.9-4.9S33.9,11,31.2,11s-4.9,2.2-4.9,4.9C26.4,18.6,28.5,20.8,31.2,20.8L31.2,20.8
			z"/>
	</g>
</g>
</svg>
