<svg xmlns="http://www.w3.org/2000/svg" viewBox="0 0 554.35 164.41"><defs><style>.cls-1{fill:none;}.cls-2{fill:#3e3a39;}.cls-3{fill:#f8b500;}.cls-4{fill:#00a496;}</style></defs><g id="レイヤー_2" data-name="レイヤー 2"><g id="mark"><rect class="cls-1" width="554.35" height="164.41"/><rect class="cls-1" x="540.18" width="14.17" height="164.41"/><path class="cls-2" d="M124.31,54.68V39.83h2.43V54.68Z"/><path class="cls-2" d="M137.63,54.68V48.11c0-1.56-.29-3-2.21-3s-2.72,1.8-2.72,3.56v6.06h-2.22V46.11c0-.85,0-1.72-.11-2.57h2.09l.07,1.92a3.88,3.88,0,0,1,3.6-2.14c2.77,0,3.75,1.76,3.75,4.32v7Z"/><path class="cls-2" d="M151,54.68l-.14-1.85a3.68,3.68,0,0,1-3.49,2.1c-3.37,0-4.62-2.92-4.62-5.86s1.25-5.75,4.62-5.75a3.65,3.65,0,0,1,3.36,2.07V38.62h2.23V51.34c0,1.23,0,2.29.11,3.34ZM147.89,45c-2.29,0-2.78,2.18-2.78,4.05s.53,4.12,2.81,4.12,2.83-2.36,2.83-4.12S150.06,45,147.89,45Z"/><path class="cls-2" d="M158,49.69a3.41,3.41,0,0,0,3.45,3.68,7.42,7.42,0,0,0,3.23-.78l.13,1.74a11.07,11.07,0,0,1-3.72.6c-3.65,0-5.39-2.39-5.39-5.86,0-3,1.94-5.75,5-5.75,3.32,0,4.65,2.56,4.65,5.7v.67Zm2.76-4.83c-1.89,0-2.78,2-2.78,3.45h5.27C163.28,46.73,162.68,44.86,160.79,44.86Z"/><path class="cls-2" d="M173.8,54.93a3.59,3.59,0,0,1-3.37-2v6.61h-2.22V47.06c0-1.29-.05-2.42-.11-3.52h2.11l.09,1.92a4,4,0,0,1,3.54-2.14c3.39,0,4.57,2.79,4.57,5.75S177.16,54.93,173.8,54.93ZM173.22,45c-2.14,0-2.85,2.25-2.85,4s.67,4.14,2.83,4.14,2.8-2.29,2.8-4.14S175.51,45,173.22,45Z"/><path class="cls-2" d="M182.86,49.69a3.41,3.41,0,0,0,3.45,3.68,7.39,7.39,0,0,0,3.23-.78l.14,1.74a11.15,11.15,0,0,1-3.72.6c-3.65,0-5.39-2.39-5.39-5.86,0-3,1.94-5.75,5-5.75,3.32,0,4.66,2.56,4.66,5.7v.67Zm2.76-4.83c-1.89,0-2.78,2-2.78,3.45h5.28C188.12,46.73,187.52,44.86,185.62,44.86Z"/><path class="cls-2" d="M200.19,54.68V48.11c0-1.56-.29-3-2.2-3-2.08,0-2.72,1.8-2.72,3.56v6.06H193V46.11a24.55,24.55,0,0,0-.11-2.57H195l.07,1.92a3.89,3.89,0,0,1,3.61-2.14c2.76,0,3.74,1.76,3.74,4.32v7Z"/><path class="cls-2" d="M213.51,54.68l-.13-1.85a3.68,3.68,0,0,1-3.5,2.1c-3.36,0-4.61-2.92-4.61-5.86s1.25-5.75,4.61-5.75a3.64,3.64,0,0,1,3.36,2.07V38.62h2.23V51.34c0,1.23,0,2.29.11,3.34Zm-3-9.64c-2.3,0-2.79,2.18-2.79,4.05s.54,4.12,2.81,4.12,2.83-2.36,2.83-4.12S212.62,45,210.46,45Z"/><path class="cls-2" d="M220.59,49.69A3.41,3.41,0,0,0,224,53.37a7.39,7.39,0,0,0,3.23-.78l.14,1.74a11.15,11.15,0,0,1-3.72.6c-3.65,0-5.39-2.39-5.39-5.86,0-3,1.94-5.75,5-5.75,3.32,0,4.66,2.56,4.66,5.7v.67Zm2.76-4.83c-1.89,0-2.78,2-2.78,3.45h5.28C225.85,46.73,225.25,44.86,223.35,44.86Z"/><path class="cls-2" d="M237.92,54.68V48.11c0-1.56-.29-3-2.21-3-2.07,0-2.71,1.8-2.71,3.56v6.06h-2.23V46.11a24.55,24.55,0,0,0-.11-2.57h2.09l.07,1.92a3.89,3.89,0,0,1,3.61-2.14c2.76,0,3.74,1.76,3.74,4.32v7Z"/><path class="cls-2" d="M247.34,54.93c-2.38,0-2.83-1.65-2.83-3.81v-6h-2V43.54h2v-2.4l2.25-.74v3.14h2.5v1.61h-2.5v6.24c0,1,.25,1.78,1.38,1.78a2.93,2.93,0,0,0,1.23-.27l.11,1.65A6.61,6.61,0,0,1,247.34,54.93Z"/><path class="cls-2" d="M268.76,54.68l-1.42-3.9h-6.88L259,54.68h-2.37l5.8-14.85h3.05l5.83,14.85Zm-4.85-13.14L261.06,49h5.68Z"/><path class="cls-2" d="M280.88,54.68l-.13-1.85a3.68,3.68,0,0,1-3.5,2.1c-3.36,0-4.61-2.92-4.61-5.86s1.25-5.75,4.61-5.75a3.64,3.64,0,0,1,3.36,2.07V38.62h2.23V51.34c0,1.23,0,2.29.11,3.34ZM277.83,45c-2.3,0-2.79,2.18-2.79,4.05s.54,4.12,2.81,4.12,2.83-2.36,2.83-4.12S280,45,277.83,45Z"/><path class="cls-2" d="M299.72,54.68V47.53c0-1.36-.42-2.47-2-2.47-1.83,0-2.47,1.83-2.47,3.54v6.08H293V47.53c0-1.36-.42-2.47-2-2.47-1.83,0-2.5,1.83-2.5,3.54v6.08h-2.22V46.11c0-.85,0-1.72-.11-2.57h2.09l.07,1.92a3.61,3.61,0,0,1,3.4-2.14,3.22,3.22,0,0,1,3.26,2.27,3.7,3.7,0,0,1,3.4-2.27c2.43,0,3.52,1.65,3.52,3.94v7.42Z"/><path class="cls-2" d="M305.47,41.25V39.09h2.23v2.16Zm0,13.43V43.54h2.23V54.68Z"/><path class="cls-2" d="M318.45,54.68V48.11c0-1.56-.29-3-2.2-3-2.07,0-2.72,1.8-2.72,3.56v6.06H311.3V46.11a24.55,24.55,0,0,0-.11-2.57h2.1l.06,1.92A3.9,3.9,0,0,1,317,43.32c2.76,0,3.74,1.76,3.74,4.32v7Z"/><path class="cls-2" d="M324.09,41.25V39.09h2.23v2.16Zm0,13.43V43.54h2.23V54.68Z"/><path class="cls-2" d="M332.69,54.93a10.36,10.36,0,0,1-3.41-.54l.13-1.78a6.65,6.65,0,0,0,3,.73c1,0,2.3-.49,2.3-1.67,0-2.51-5.48-1.69-5.48-5.18,0-2.3,2.27-3.17,4.21-3.17a9.88,9.88,0,0,1,3,.49l-.14,1.63a7.33,7.33,0,0,0-2.69-.54c-1,0-2.19.27-2.19,1.52,0,1.94,5.48,1.36,5.48,5.12C337,53.88,334.76,54.93,332.69,54.93Z"/><path class="cls-2" d="M343.35,54.93c-2.38,0-2.82-1.65-2.82-3.81v-6h-2V43.54h2v-2.4l2.25-.74v3.14h2.49v1.61h-2.49v6.24c0,1,.24,1.78,1.38,1.78a2.92,2.92,0,0,0,1.22-.27l.11,1.65A6.52,6.52,0,0,1,343.35,54.93Z"/><path class="cls-2" d="M353.82,45.53a2.55,2.55,0,0,0-.91-.14c-2.18,0-2.76,2.25-2.76,4v5.3h-2.23V46.11a24.55,24.55,0,0,0-.11-2.57h2.09l.07,2.14a3.52,3.52,0,0,1,3-2.36,3.27,3.27,0,0,1,.93.09Z"/><path class="cls-2" d="M362.64,54.68l-.06-1.76a4,4,0,0,1-3.5,2c-2,0-3.7-1-3.7-3.19,0-2.89,2.76-3.9,6-3.9.29,0,.75,0,1.09,0V47.4A2.24,2.24,0,0,0,360,44.88a6.15,6.15,0,0,0-3.27.89l-.14-1.71a10.43,10.43,0,0,1,3.61-.74c2.87,0,4.52,1.25,4.52,4.23v4.66a20.11,20.11,0,0,0,.14,2.47Zm-.13-5.46h-.36c-1.8,0-4.56.16-4.56,2.39,0,1.2,1,1.76,2.07,1.76,2.14,0,2.85-1.67,2.85-3.54Z"/><path class="cls-2" d="M371.51,54.93c-2.39,0-2.83-1.65-2.83-3.81v-6h-2.05V43.54h2.05v-2.4l2.25-.74v3.14h2.49v1.61h-2.49v6.24c0,1,.24,1.78,1.38,1.78a2.92,2.92,0,0,0,1.22-.27l.12,1.65A6.61,6.61,0,0,1,371.51,54.93Z"/><path class="cls-2" d="M376.3,41.25V39.09h2.22v2.16Zm0,13.43V43.54h2.22V54.68Z"/><path class="cls-2" d="M387.21,54.68h-2.76L380.8,43.54h2.38l2.72,9.31,2.71-9.31h2.27Z"/><path class="cls-2" d="M394.56,49.69A3.41,3.41,0,0,0,398,53.37a7.42,7.42,0,0,0,3.23-.78l.13,1.74a11.06,11.06,0,0,1-3.71.6c-3.66,0-5.4-2.39-5.4-5.86,0-3,1.94-5.75,5-5.75,3.32,0,4.65,2.56,4.65,5.7v.67Zm2.76-4.83c-1.89,0-2.78,2-2.78,3.45h5.28C399.82,46.73,399.21,44.86,397.32,44.86Z"/><path class="cls-2" d="M410.75,54.68V39.83h2.43V54.68Z"/><path class="cls-2" d="M424.07,54.68V48.11c0-1.56-.29-3-2.21-3-2.07,0-2.72,1.8-2.72,3.56v6.06h-2.22V46.11a24.55,24.55,0,0,0-.11-2.57h2.09l.07,1.92a3.88,3.88,0,0,1,3.61-2.14c2.76,0,3.74,1.76,3.74,4.32v7Z"/><path class="cls-2" d="M432.46,54.93a10.34,10.34,0,0,1-3.4-.54l.13-1.78a6.59,6.59,0,0,0,3.05.73c1,0,2.29-.49,2.29-1.67,0-2.51-5.47-1.69-5.47-5.18,0-2.3,2.27-3.17,4.2-3.17a9.78,9.78,0,0,1,3,.49l-.13,1.63a7.35,7.35,0,0,0-2.7-.54c-1,0-2.18.27-2.18,1.52,0,1.94,5.48,1.36,5.48,5.12C436.74,53.88,434.53,54.93,432.46,54.93Z"/><path class="cls-2" d="M443.13,54.93c-2.38,0-2.83-1.65-2.83-3.81v-6h-2.05V43.54h2.05v-2.4l2.25-.74v3.14h2.5v1.61h-2.5v6.24c0,1,.25,1.78,1.38,1.78a2.93,2.93,0,0,0,1.23-.27l.11,1.65A6.61,6.61,0,0,1,443.13,54.93Z"/><path class="cls-2" d="M447.92,41.25V39.09h2.23v2.16Zm0,13.43V43.54h2.23V54.68Z"/><path class="cls-2" d="M457.43,54.93c-2.38,0-2.83-1.65-2.83-3.81v-6h-2.05V43.54h2.05v-2.4l2.25-.74v3.14h2.5v1.61h-2.5v6.24c0,1,.25,1.78,1.38,1.78a2.93,2.93,0,0,0,1.23-.27l.11,1.65A6.61,6.61,0,0,1,457.43,54.93Z"/><path class="cls-2" d="M469.44,54.68l-.07-1.89a3.86,3.86,0,0,1-3.59,2.14c-2.76,0-3.72-1.81-3.72-4.37v-7h2.23v6.55c0,1.56.29,3.08,2.21,3.08s2.69-1.81,2.69-3.57V43.54h2.23v8.58a24.36,24.36,0,0,0,.11,2.56Z"/><path class="cls-2" d="M478.48,54.93c-2.39,0-2.83-1.65-2.83-3.81v-6h-2V43.54h2v-2.4l2.25-.74v3.14h2.49v1.61H477.9v6.24c0,1,.24,1.78,1.38,1.78a2.92,2.92,0,0,0,1.22-.27l.12,1.65A6.61,6.61,0,0,1,478.48,54.93Z"/><path class="cls-2" d="M483.27,41.25V39.09h2.22v2.16Zm0,13.43V43.54h2.22V54.68Z"/><path class="cls-2" d="M493.8,54.93c-3.56,0-5.48-2.48-5.48-5.86s2.14-5.75,5.48-5.75c3.52,0,5.48,2.27,5.48,5.75S497.32,54.93,493.8,54.93Zm0-9.94c-2.22,0-3.07,2.12-3.07,4.08s.85,4.16,3.07,4.16,3.08-2.11,3.08-4.16S496.1,45,493.8,45Z"/><path class="cls-2" d="M509.17,54.68V48.11c0-1.56-.29-3-2.2-3-2.08,0-2.72,1.8-2.72,3.56v6.06H502V46.11a24.55,24.55,0,0,0-.11-2.57H504l.07,1.92a3.89,3.89,0,0,1,3.61-2.14c2.76,0,3.74,1.76,3.74,4.32v7Z"/><path class="cls-2" d="M125.67,98.32a11.45,11.45,0,0,1-3.68-.61l.2-3.36a5.63,5.63,0,0,0,2.31.4c2.87,0,3.89-2.18,3.89-4.66V70.86h4.41V90.54C132.8,95.16,130.49,98.32,125.67,98.32Z"/><path class="cls-2" d="M151.63,97.87l-.12-3.2a7.31,7.31,0,0,1-6.36,3.65c-3.64,0-6.72-1.83-6.72-5.8,0-5.26,5-7.08,11-7.08.53,0,1.38,0,2,0v-.85c0-3-1.46-4.58-4.62-4.58a11.21,11.21,0,0,0-6,1.62l-.24-3.12a19.09,19.09,0,0,1,6.56-1.33c5.22,0,8.22,2.27,8.22,7.69v8.46a37.61,37.61,0,0,0,.24,4.5ZM151.39,88h-.65c-3.28,0-8.3.28-8.3,4.33,0,2.19,1.78,3.2,3.76,3.2,3.89,0,5.19-3,5.19-6.44Z"/><path class="cls-2" d="M172.45,98.32a6.51,6.51,0,0,1-6.12-3.73v12h-4.05V84c0-2.35-.08-4.41-.2-6.4h3.85l.16,3.48a7.17,7.17,0,0,1,6.44-3.88c6.15,0,8.3,5.06,8.3,10.45S178.56,98.32,172.45,98.32Zm-1.06-18c-3.88,0-5.18,4.09-5.18,7.34s1.21,7.53,5.14,7.53c4.13,0,5.1-4.17,5.1-7.53S175.56,80.33,171.39,80.33Z"/><path class="cls-2" d="M197.67,97.87l-.12-3.2a7.28,7.28,0,0,1-6.35,3.65c-3.65,0-6.73-1.83-6.73-5.8,0-5.26,5-7.08,11-7.08.52,0,1.37,0,2,0v-.85c0-3-1.46-4.58-4.62-4.58a11.21,11.21,0,0,0-5.95,1.62l-.24-3.12a19.09,19.09,0,0,1,6.56-1.33c5.22,0,8.22,2.27,8.22,7.69v8.46a37.61,37.61,0,0,0,.24,4.5ZM197.43,88h-.65c-3.28,0-8.3.28-8.3,4.33,0,2.19,1.78,3.2,3.77,3.2,3.89,0,5.18-3,5.18-6.44Z"/><path class="cls-2" d="M220.51,97.87v-12c0-2.83-.52-5.54-4-5.54-3.77,0-4.95,3.28-4.95,6.47v11h-4V82.28a45.41,45.41,0,0,0-.21-4.66h3.81l.12,3.48a7.07,7.07,0,0,1,6.56-3.88c5,0,6.8,3.2,6.8,7.85v12.8Z"/><path class="cls-2" d="M247.88,98.32a21.19,21.19,0,0,1-7.29-1.18l.21-3.77A13.79,13.79,0,0,0,247.64,95c3,0,5.59-1.26,5.59-4.5,0-2.27-2.55-3.52-4.82-4.62l-2.75-1.38c-2.88-1.41-5.23-3.23-5.23-6.68,0-5.3,5.23-7.37,9.84-7.37a20.42,20.42,0,0,1,6,.85l-.25,3.57a13.41,13.41,0,0,0-5.63-1.1c-2.55,0-5.58.86-5.58,3.85,0,2,2.1,3.12,4.09,4l2.87,1.38c3.2,1.5,5.91,3.36,5.91,7.33C257.72,95.8,253,98.32,247.88,98.32Z"/><path class="cls-2" d="M270.11,98.32c-4.33,0-5.14-3-5.14-6.93V80.54h-3.72V77.62H265V73.25l4.09-1.34v5.71h4.54v2.92h-4.54V91.88c0,1.74.45,3.24,2.51,3.24a5.47,5.47,0,0,0,2.23-.49l.2,3A11.85,11.85,0,0,1,270.11,98.32Z"/><path class="cls-2" d="M292.75,97.87l-.12-3.44a7,7,0,0,1-6.52,3.89c-5,0-6.76-3.28-6.76-7.94V77.62h4V89.53c0,2.83.52,5.59,4,5.59,3.76,0,4.9-3.28,4.9-6.48v-11h4.05V93.21a45.4,45.4,0,0,0,.2,4.66Z"/><path class="cls-2" d="M316.48,97.87l-.24-3.36a6.71,6.71,0,0,1-6.36,3.81c-6.11,0-8.38-5.31-8.38-10.65s2.27-10.45,8.38-10.45A6.63,6.63,0,0,1,316,81V68.67h4.05V91.8c0,2.22.08,4.17.2,6.07Zm-5.55-17.54c-4.17,0-5.06,4-5.06,7.38s1,7.49,5.11,7.49c3.92,0,5.14-4.29,5.14-7.49S314.86,80.33,310.93,80.33Z"/><path class="cls-2" d="M329.16,88.8c0,3.72,2.35,6.68,6.27,6.68a13.51,13.51,0,0,0,5.88-1.42l.24,3.16a20.09,20.09,0,0,1-6.76,1.1c-6.64,0-9.8-4.34-9.8-10.65,0-5.55,3.52-10.45,9.15-10.45,6,0,8.46,4.65,8.46,10.36V88.8Zm5-8.79c-3.44,0-5.06,3.69-5.06,6.28h9.59C338.71,83.41,337.62,80,334.18,80Z"/><path class="cls-2" d="M360.66,97.87v-12c0-2.83-.52-5.54-4-5.54-3.76,0-4.94,3.28-4.94,6.47v11h-4V82.28a45.4,45.4,0,0,0-.2-4.66h3.81l.12,3.48A7.06,7.06,0,0,1,358,77.22c5,0,6.8,3.2,6.8,7.85v12.8Z"/><path class="cls-2" d="M377.59,98.32c-4.33,0-5.14-3-5.14-6.93V80.54h-3.73V77.62h3.73V73.25l4.09-1.34v5.71h4.53v2.92h-4.53V91.88c0,1.74.44,3.24,2.51,3.24a5.47,5.47,0,0,0,2.23-.49l.2,3A11.9,11.9,0,0,1,377.59,98.32Z"/><path class="cls-2" d="M403.42,98.32a21.19,21.19,0,0,1-7.29-1.18l.2-3.77A13.85,13.85,0,0,0,403.18,95c2.95,0,5.59-1.26,5.59-4.5,0-2.27-2.56-3.52-4.82-4.62l-2.76-1.38c-2.87-1.41-5.22-3.23-5.22-6.68,0-5.3,5.22-7.37,9.84-7.37a20.35,20.35,0,0,1,6,.85l-.24,3.57a13.44,13.44,0,0,0-5.63-1.1c-2.55,0-5.59.86-5.59,3.85,0,2,2.11,3.12,4.09,4l2.88,1.38c3.2,1.5,5.91,3.36,5.91,7.33C413.26,95.8,408.52,98.32,403.42,98.32Z"/><path class="cls-2" d="M421.32,88.8c0,3.72,2.35,6.68,6.27,6.68a13.51,13.51,0,0,0,5.88-1.42l.24,3.16a20,20,0,0,1-6.76,1.1c-6.64,0-9.8-4.34-9.8-10.65,0-5.55,3.52-10.45,9.15-10.45,6,0,8.46,4.65,8.46,10.36V88.8Zm5-8.79c-3.44,0-5.06,3.69-5.06,6.28h9.6C430.88,83.41,429.78,80,426.34,80Z"/><path class="cls-2" d="M450.56,81.23A4.47,4.47,0,0,0,448.9,81c-4,0-5,4.09-5,7.25v9.64h-4V82.28a45.41,45.41,0,0,0-.21-4.66h3.81l.12,3.89c.85-2.15,2.92-4.29,5.51-4.29a6.13,6.13,0,0,1,1.7.16Z"/><path class="cls-2" d="M464.93,97.87h-5l-6.64-20.25h4.33l4.94,16.93,4.94-16.93h4.13Z"/><path class="cls-2" d="M476,73.45V69.52H480v3.93Zm0,24.42V77.62H480V97.87Z"/><path class="cls-2" d="M495.51,98.32c-6.4,0-10.17-4.46-10.17-10.65s4.09-10.45,10.37-10.45a16.8,16.8,0,0,1,5.3.85l-.24,3.24a10,10,0,0,0-4.21-1.06c-4.46,0-6.84,3.16-6.84,7.42,0,4,2.34,7.57,6.68,7.57a11,11,0,0,0,4.41-.93l.2,3.19A16.71,16.71,0,0,1,495.51,98.32Z"/><path class="cls-2" d="M508.83,88.8c0,3.72,2.35,6.68,6.28,6.68A13.5,13.5,0,0,0,521,94.06l.24,3.16a20,20,0,0,1-6.76,1.1c-6.64,0-9.8-4.34-9.8-10.65,0-5.55,3.52-10.45,9.15-10.45,6,0,8.46,4.65,8.46,10.36V88.8Zm5-8.79c-3.44,0-5.06,3.69-5.06,6.28h9.6C518.39,83.41,517.29,80,513.85,80Z"/><path class="cls-2" d="M532.36,98.32a18.89,18.89,0,0,1-6.2-1l.25-3.24A11.92,11.92,0,0,0,532,95.44c1.87,0,4.17-.89,4.17-3,0-4.57-10-3.07-10-9.43,0-4.17,4.13-5.75,7.66-5.75a17.64,17.64,0,0,1,5.46.89l-.24,3a13.71,13.71,0,0,0-4.9-1c-1.78,0-4,.49-4,2.75,0,3.53,10,2.48,10,9.32C540.13,96.41,536.12,98.32,532.36,98.32Z"/><path class="cls-2" d="M131.76,141.51c-8.47,0-12.64-5.91-12.64-13.93,0-7.78,4.38-13.93,12.64-13.93,8.46,0,12.63,5.95,12.63,13.93S140.06,141.51,131.76,141.51Zm0-24.54c-5.79,0-8,5.67-8,10.61s2.27,10.61,8,10.61c5.91,0,8-5.55,8-10.61S137.67,117,131.76,117Z"/><path class="cls-2" d="M160.59,124.42a4.64,4.64,0,0,0-1.66-.24c-4,0-5,4.09-5,7.24v9.64h-4V125.47a45.08,45.08,0,0,0-.2-4.65h3.8l.12,3.88c.85-2.14,2.92-4.29,5.51-4.29a6.1,6.1,0,0,1,1.7.16Z"/><path class="cls-2" d="M172.62,150.26a23.51,23.51,0,0,1-6.89-1.1l.25-3.44a13.25,13.25,0,0,0,6,1.46c4.7,0,6.6-3,6.6-7.25v-2.39a7.32,7.32,0,0,1-6.28,3.52c-5.91,0-8.22-5.14-8.22-10.2,0-5.39,2.31-10.45,8.3-10.45a6.7,6.7,0,0,1,6.36,3.77v-3.36h3.89v19.11C182.66,146.49,179.3,150.26,172.62,150.26Zm1-26.73c-4.17,0-5.1,4-5.1,7.37,0,3.16,1,7,5.06,7,3.93,0,5.18-4,5.18-7C178.73,127.66,177.52,123.53,173.59,123.53Z"/><path class="cls-2" d="M200.72,141.06l-.12-3.2a7.31,7.31,0,0,1-6.36,3.65c-3.64,0-6.72-1.82-6.72-5.79,0-5.27,5-7.09,11-7.09.53,0,1.38,0,2,0v-.85c0-3-1.46-4.57-4.62-4.57a11.2,11.2,0,0,0-6,1.61l-.25-3.11a19.2,19.2,0,0,1,6.57-1.34c5.22,0,8.22,2.27,8.22,7.69v8.47a37.44,37.44,0,0,0,.24,4.49Zm-.24-9.92h-.65c-3.28,0-8.3.28-8.3,4.33,0,2.19,1.78,3.2,3.76,3.2,3.89,0,5.19-3,5.19-6.43Z"/><path class="cls-2" d="M223.56,141.06V129.12c0-2.84-.53-5.55-4-5.55-3.76,0-4.94,3.28-4.94,6.48v11h-4.05V125.47a45.08,45.08,0,0,0-.2-4.65h3.81l.12,3.48a7.06,7.06,0,0,1,6.56-3.89c5,0,6.8,3.2,6.8,7.86v12.79Z"/><path class="cls-2" d="M234.21,116.64v-3.92h4v3.92Zm0,24.42V120.82h4v20.24Z"/><path class="cls-2" d="M244.05,141.06v-3.28l11.26-14H244.5v-2.91h15.34v3.27l-11.21,14h11.3v2.95Z"/><path class="cls-2" d="M276.81,141.06l-.12-3.2a7.29,7.29,0,0,1-6.36,3.65c-3.64,0-6.72-1.82-6.72-5.79,0-5.27,5-7.09,11-7.09.53,0,1.38,0,2,0v-.85c0-3-1.46-4.57-4.62-4.57a11.2,11.2,0,0,0-5.95,1.61l-.24-3.11a19.1,19.1,0,0,1,6.56-1.34c5.22,0,8.22,2.27,8.22,7.69v8.47a37.44,37.44,0,0,0,.24,4.49Zm-.24-9.92h-.65c-3.28,0-8.3.28-8.3,4.33,0,2.19,1.78,3.2,3.77,3.2,3.88,0,5.18-3,5.18-6.43Z"/><path class="cls-2" d="M293.33,141.51c-4.33,0-5.14-3-5.14-6.93V123.73h-3.72v-2.91h3.72v-4.38l4.09-1.33v5.71h4.54v2.91h-4.54v11.34c0,1.74.45,3.24,2.51,3.24a5.31,5.31,0,0,0,2.23-.49l.2,3A11.6,11.6,0,0,1,293.33,141.51Z"/><path class="cls-2" d="M302.45,116.64v-3.92h4.05v3.92Zm0,24.42V120.82h4.05v20.24Z"/><path class="cls-2" d="M321.6,141.51c-6.48,0-10-4.5-10-10.65s3.89-10.45,10-10.45c6.4,0,10,4.13,10,10.45C331.56,137,328,141.51,321.6,141.51Zm0-18.06c-4.05,0-5.59,3.84-5.59,7.41s1.54,7.57,5.59,7.57,5.59-3.85,5.59-7.57S325.77,123.45,321.6,123.45Z"/><path class="cls-2" d="M349.14,141.06V129.12c0-2.84-.53-5.55-4-5.55-3.77,0-4.94,3.28-4.94,6.48v11h-4.05V125.47a45.08,45.08,0,0,0-.2-4.65h3.8l.12,3.48a7.08,7.08,0,0,1,6.56-3.89c5,0,6.81,3.2,6.81,7.86v12.79Z"/><path class="cls-3" d="M81,85.33c-2.34-5.65-7.4-10.11-15.8-13.13a.47.47,0,0,0-.55.71c2.92,4.62.29,11.35-10.11,17.5-2.85,1.69-5,2.82-6.39,3.52A1.38,1.38,0,0,0,48,96.47a15.67,15.67,0,0,0,7.17,1.89c-8.46,6.42-17.13,9.7-29.47,12.89-1.51.41-1.69,2,0,3.11,4.29,2.88,12.39,4.74,20,4.1-1.43.87-1.63,1.41-1.41,2.06s.75,1.1,2.27,1a42.61,42.61,0,0,0,24.85-10C81.66,102.78,84.11,92.87,81,85.33Z"/><path class="cls-4" d="M89.25,9.86c.11-1.59-.33-1.62-1.44-.9C74.54,17.61,60.65,22.27,48.93,28.74S31.48,40.07,27,46.91c-4.44,6.68-5.53,12.87-4.87,18a.29.29,0,0,0,.57,0c1-7.11,5.93-14.61,16.59-21.35,5.22-3.31,15.85-8.35,25.45-11.86.46-.16.77,0,.1.41-3.55,2.14-9.44,5.54-16.47,9.34-9.6,5.21-15.89,10.21-19.67,15.84-6.16,9.16-6.06,22.25,14.05,27a.47.47,0,0,0,.51-.73c-2.52-4-2.77-10.29,12.86-19.17,16.21-9.21,22.84-15.64,25-24,.25-1-.15-1.47-1.19-1-1.62.75-4.54,1.88-6.72,2.63A25.34,25.34,0,0,0,86.06,25.1c.22-1-.27-1.5-1.14-1a53.19,53.19,0,0,1-6.68,3.11C85.8,21.68,88.94,14.65,89.25,9.86Z"/><path class="cls-4" d="M50.09,150.54a14.11,14.11,0,0,1-4.88-.79l.13-2.52a9.25,9.25,0,0,0,4.59,1.08c2,0,3.74-.84,3.74-3,0-1.51-1.71-2.35-3.23-3.09l-1.84-.92c-1.93-.95-3.5-2.17-3.5-4.47,0-3.55,3.5-4.94,6.59-4.94a13.7,13.7,0,0,1,4,.57l-.17,2.39a9,9,0,0,0-3.76-.73c-1.71,0-3.75.57-3.75,2.57,0,1.36,1.41,2.09,2.74,2.71l1.93.93c2.14,1,4,2.25,4,4.9C56.67,148.85,53.5,150.54,50.09,150.54Z"/><path class="cls-3" d="M65.35,150.54a14.19,14.19,0,0,1-4.88-.79l.14-2.52a9.24,9.24,0,0,0,4.58,1.08c2,0,3.74-.84,3.74-3,0-1.51-1.71-2.35-3.23-3.09l-1.84-.92c-1.92-.95-3.5-2.17-3.5-4.47,0-3.55,3.5-4.94,6.59-4.94a13.7,13.7,0,0,1,4,.57l-.16,2.39a9.05,9.05,0,0,0-3.77-.73c-1.71,0-3.74.57-3.74,2.57,0,1.36,1.41,2.09,2.74,2.71l1.92.93c2.14,1,4,2.25,4,4.9C71.94,148.85,68.77,150.54,65.35,150.54Z"/><path class="cls-2" d="M16.58,150.54a7.66,7.66,0,0,1-2.47-.41l.14-2.25a3.63,3.63,0,0,0,1.54.27c1.93,0,2.6-1.46,2.6-3.12V132.15h3v13.18C21.35,148.42,19.8,150.54,16.58,150.54Z"/><path class="cls-2" d="M37.16,143.33H30.24l3.47-9.09Zm5.55,6.91-7.1-18.09H31.9l-7,18.09h2.87l1.79-4.75h8.38l1.73,4.75Z"/><path class="cls-2" d="M89.1,141.21c0,3.39-1.41,7.1-5.37,7.1s-5.37-3.79-5.37-7.1,1.5-7.1,5.37-7.1S89.1,137.82,89.1,141.21Zm3.09,0c0-5.34-2.79-9.33-8.46-9.33s-8.46,4.12-8.46,9.33c0,5.37,2.8,9.33,8.46,9.33S92.19,146.47,92.19,141.21Z"/><rect class="cls-1" x="14.17" y="8.51" width="77.95" height="141.73"/><rect class="cls-1" width="106.29" height="164.41"/></g></g></svg>