<svg xmlns="http://www.w3.org/2000/svg" viewBox="0 0 320 320"><defs><style>.cls-1,.cls-6{fill:#fff;}.cls-2{fill:#231815;}.cls-3{fill:#fff100;}.cls-4{fill:#f39800;}.cls-5{fill:#e60012;}.cls-6{fill-rule:evenodd;}</style></defs><g id="レイヤー_2" data-name="レイヤー 2"><g id="logo_mark_svg"><path class="cls-1" d="M310.86,320H9.12A9.14,9.14,0,0,1,0,310.86V9.13A9.14,9.14,0,0,1,9.12,0H310.86A9.15,9.15,0,0,1,320,9.13V310.86a9.15,9.15,0,0,1-9.14,9.14Z"/><path class="cls-2" d="M33,277.51c.26,2.89,2.28,3.5,4.71,3.5.78,0,3.88,0,3.88-2.57,0-1.38-1-2-4.77-3.38-5.24-2-8.54-3.21-8.54-8.16,0-2,.81-7.69,9-7.69,7.95,0,8.82,5.79,9.14,7.94H41.14a3.82,3.82,0,0,0-.75-1.92c-.32-.45-.87-1.23-3.19-1.23-2.6,0-3.5,1.1-3.5,2.26,0,1.79,1.3,2.31,4.49,3.5,6.56,2.51,8.79,4.15,8.79,8,0,2.6-1.59,8.16-9.29,8.16-3.64,0-9.57-1.51-10-8.45Z"/><path class="cls-2" d="M61.34,285.26H56.1V264.65H48.4v-4.73H69v4.73H61.34Z"/><path class="cls-2" d="M77.37,259.92v15.91c0,4,3,5.31,5.44,5.31,4.45,0,5.58-3.12,5.58-5.31V259.92h5.18v15.56c0,7-4.25,10.48-10.59,10.48-5,0-10.82-2.15-10.82-10.48V259.92Z"/><path class="cls-2" d="M96.84,259.92h8.6c7.9,0,11.77,4.7,11.77,12.9,0,11.05-7.06,12.44-11.77,12.44h-8.6Zm5.21,20.61h3.79c4,0,6-3.31,6-8,0-3.95-1.56-7.84-6-7.84h-3.79Z"/><path class="cls-2" d="M130,285.26h-5.35v-9.91l-8.48-15.43h5.93l5.21,10,5.24-10h5.93L130,275.35Z"/><path class="cls-2" d="M154,262.33a3.28,3.28,0,1,1-3.28-3.28A3.29,3.29,0,0,1,154,262.33Zm-.36,22.83h-5.85V268.67h5.85Z"/><path class="cls-2" d="M162.74,270.79h.06a5.7,5.7,0,0,1,5.28-2.67c4.43,0,6.2,2.8,6.2,6.85v10.19h-5.85v-8c0-1.57.26-4.34-2.64-4.34-2.38,0-3,1.77-3,3.83v8.55h-5.85V268.67h5.85Z"/><path class="cls-2" d="M201.52,276.93c0,5.79-3.7,9-9.17,9-4.54,0-9.37-2.57-9.37-8.55V275.1h4.94v1.83a4.21,4.21,0,1,0,8.42,0v-17h5.18Z"/><path class="cls-2" d="M209.6,280.59l-1.36,4.67h-5.39l8.25-25.34h5.82l8.24,25.34h-5.38l-1.36-4.67Zm7.63-4L214,265.39l-3.24,11.18Z"/><path class="cls-2" d="M228.35,259.92h11.89c4.43,0,8.48,2.83,8.48,8.49,0,4.47-2.81,8.26-8.48,8.26h-6.68v8.59h-5.21Zm5.21,12.15h6.1a3.78,3.78,0,0,0,0-7.55h-6.1Z"/><path class="cls-2" d="M253.87,280.59l-1.36,4.67h-5.38l8.25-25.34h5.81l8.25,25.34h-5.38l-1.36-4.67Zm7.64-4-3.24-11.18L255,276.57Z"/><path class="cls-2" d="M288.42,285.26,276.91,268l.17,17.24H272V259.92h5l11.51,17.23-.17-17.23h5.12v25.34Z"/><path class="cls-3" d="M208.21,217.57c-22.85,14.91-53.15,20.43-81.58,11.6-.94-.34-1.78-.5-1.86-.36s.61.53,1.49.83c28.63,9,59,3.53,82-11.36.72-.53,1.24-1.09,1.24-1.28S208.88,217.09,208.21,217.57ZM72.68,130.85c.21.53.37.49.42-.1a6,6,0,0,0-.24-1.88c-.19-.45-.39-.43-.43.06A5.62,5.62,0,0,0,72.68,130.85Zm29.52.81a6.29,6.29,0,0,0,.45.74c0-.18,0-.36-.07-.54l-.65-1.4ZM130.83,228a95.27,95.27,0,0,0,76.51-15.1l6.06-4.51a48.87,48.87,0,0,0,5.48-5.12c14.43-15.23,23.29-23.88,34.45-46-12.05,25.4-21.73,38-40,55.43-1.31,1.07-2,2-1.66,2.17s1.8-.69,3.12-1.78c12.64-10.69,22-23,30-35l5.85-9.08a54.51,54.51,0,0,0,6.13-15.16A77.07,77.07,0,0,0,258,126.06c1.94-9.71-1.11-30.37-11.26-46.87a74.81,74.81,0,0,0-12.8-16.38,66.65,66.65,0,0,1,5.73,7.6,72.65,72.65,0,0,0-19.07-17.59l-1.67-1.48c-7.75-6.22-17.91-12.16-29.63-14.29a119.92,119.92,0,0,0-29-1.88l1.44,1c-3.52,0-5.61-.76-9.59,0l3.38.11-.24,0a84.38,84.38,0,0,0-14.56,2.39c-11.6,2.71-27.48,8.65-37.75,23.43-.25.33-.45.71-.7,1a23.75,23.75,0,0,0-5.78,8.59c-.85,1.48-1.74,3.3-2.4,4.38C88.41,85.54,85,99.25,84.9,112.27l.83-7.8a67.89,67.89,0,0,0-.14,11.88l.51-1.47c-.9,12.68,5,32.58,15.12,43.09,5.38,5,7.18,5.81,6.85,3.51a45.31,45.31,0,0,0,13.63,20.13,43,43,0,0,0,6.68,4.57c-9.41-2.66-17.1-7.59-24.26-18.54-.31-.48-.51-.46-.51-.14a4.28,4.28,0,0,0,.69,1.59c12.26,23.89,41.46,30.44,65.61,21.3,2.65-1.31,5.52-1.85,7.93-3.58l1-.45.67-.33c.44-.21.87-.44,1.31-.66.95-.45,1.89-1,2.83-1.5.33-.21.7-.39,1-.59l-1.07.88c-1.58,1-2.74,2.06-2.53,2.64.13.21.5.27,1,.2a57,57,0,0,1-18.44,9.7c-2.06.46-3.89,1.34-5.53,1.57-8.24.71-16.65-1-24.17-3.71l-1.82-.83c-2.52-.84-4.79-1.72-6.16-1.79l-1,.17c-17-6.22-25.85-27.34-34.53-47.53-.38-1-.72-1.48-1-1.27L89.19,142c-1-2.32-1.9-5-2.81-7.83-.26-.6-.45-.93-.55-.62A3.12,3.12,0,0,0,86,135.1c1,2.92,1.93,5.75,3,8.28l.33.48a6.12,6.12,0,0,0,.54,2.44c7.7,21.22,16.86,40.69,34.21,48.19a46.45,46.45,0,0,1-22.15-18.74c-7.22-12.18-13.2-24.35-16.77-38.09-.17-.73-.43-1.17-.57-1.08s-.14.73.07,1.43c8.3,28.53,21.33,53.75,47.07,61.14l2.95,1.15a62,62,0,0,1-23.89-8.61C92.6,173.9,82.2,142.61,80.08,116.78c0-1.32-.28-2.41-.59-2.42s-.58,1.11-.58,2.46c-.5,15.52,3.34,31.57,9,46.83l-1.66-3.05-1.39-3.15c-3.26-10-6.54-20.06-7.57-30.48-.62-3.86-1.27-7.09-2.15-7.34-.87-.09-1.77,2.88-1.22,6.75l-.38-1.87c-.11-.62-.35-1.09-.46-.91a3.8,3.8,0,0,0,0,1.69L74.54,132a144.22,144.22,0,0,0,22,57.66,141.87,141.87,0,0,1-24.75-63c.16.47.36.51.41-.06a6.51,6.51,0,0,0-.25-1.91c-.2-.54-.38-.44-.43.06l0,0c-.9-12.21-.24-25.23,5.79-36.69.31-.67.41-1.34.25-1.41s-.54.48-.86,1.26c-9.4,19.57-6.72,41.7-.82,60.74,6.77,18.43,13.76,39,31.23,51.62l5.39,4.09h0c.2,1,1.25,2.15,2.82,3.58-13.23-6.78-23.78-19.55-29.73-32.35A169.74,169.74,0,0,1,74,142.47c-.35-1.65-1-3-1.37-3s-.34,1.42.06,3.18a68.08,68.08,0,0,0,2.17,8.4c-1.2-2.14-2.3-3.51-3-3.53s-1.11,1.32-.94,3.39c-4-12.49-7.65-25.34-7.81-39.17-.05-.8-.2-1.24-.36-1a4.41,4.41,0,0,0-.22,1.87c-.11,20,5.55,37.89,12.61,54.7,4.13,12.58,10,29,24.87,41.48,21.17,17.7,47.78,20.91,69.62,15.6,8.18-1.07,15.91-3.83,23.26-7.12-.78.91-1.22,1.53-1,1.91l.32.23c-6.73,2.69-13.46,5.47-20.87,6.61-33,7.23-74.42-6.12-92.63-40.5-13.72-27.2-27-57-19.3-93.93,1.59-4.56,2.26-8.13,1.29-8s-3.35,4.26-4.85,9c-7.53,36.28,4.19,64,17.76,90.89C84.38,206.39,107.24,222.84,130.83,228Zm-25.1-76.26a54.16,54.16,0,0,0,1.47,6.76c-1-2.76-2.84-6.79-5-11.79l-.74-2.33A54.73,54.73,0,0,0,105.73,151.75ZM127.23,59c-.68.56-2.08,1.55-1,1.35-5.94,3.76-10.78,10-14.41,16.3l-3.18,7.54c-2.26,2.34-3.19,5.16-4.7,8.93,1.06-6.56,4.87-13.68,8.26-20,5-6.36,10.43-12.1,17.19-15.85ZM99,77.36a67.45,67.45,0,0,1,33.83-31.92l3-1,4.55-.87-.61.23-5.61,2,1.12-.19c-7.21,2.34-13.8,7.28-20,12.17A62.54,62.54,0,0,0,97.08,87.6,100,100,0,0,1,99,77.36ZM112,107.82v0l-.7,1.71S111.57,108.82,112,107.82Zm-9.36,8.89v0s0,0,.13.47l.57,2.26h0l.16.55.26,2.7a9.12,9.12,0,0,0,.71,2.49l-.13,1.27a46.91,46.91,0,0,0,1.49,7.09c-.13.8-.2,1.61-.3,2.41a78.14,78.14,0,0,1-2.83-16.88,10,10,0,0,0-.71-3.63c-.32-.61-.57,0-.52,1.39a90.35,90.35,0,0,0,1.06,15l.51,1.1a4.56,4.56,0,0,1-.44-.56c.08.5.2,1,.3,1.54l-.5-1.1-.25-1.18a19.35,19.35,0,0,1-1-2.19,82.46,82.46,0,0,1-1-25.49c.08-.46.57.38.78-.46l.32-1.33-.4,4.59A91.29,91.29,0,0,0,102.68,116.71Z"/><path class="cls-4" d="M227.74,203.2c-18.07,19.62-45.46,32.15-74.54,30.6-1-.09-1.8,0-1.84.11s.7.36,1.61.44c29.31,1.65,56.74-10.84,75-30.51a3.33,3.33,0,0,0,.87-1.51C228.75,202.18,228.26,202.58,227.74,203.2ZM78.42,153.58c.33.46.48.38.39-.19a5.9,5.9,0,0,0-.69-1.72c-.29-.39-.46-.32-.39.16A5.62,5.62,0,0,0,78.42,153.58Zm28.19-6.32a5.38,5.38,0,0,0,.6.58c-.07-.16-.13-.32-.19-.48l-1-1.18Zm50.3,84.44A93.15,93.15,0,0,0,225.8,199l4.66-5.74a47.61,47.61,0,0,0,4-6.17c10-17.9,16.33-28.24,21.6-51.88-5.32,27-11.47,41.22-24.6,62.16-1,1.33-1.41,2.41-1,2.46a7.21,7.21,0,0,0,2.53-2.45c9.4-13.17,15.29-27.07,20-40.37l3.35-10a53,53,0,0,0,2.18-15.85,75.49,75.49,0,0,0-5.54-26.66c-.5-9.66-8.36-28.52-22-41.71a73.17,73.17,0,0,0-16.07-12.45,66.24,66.24,0,0,1,7.27,5.83,71.1,71.1,0,0,0-22.31-12.1l-1.94-1c-8.85-4-19.91-7.21-31.52-6.41a116.72,116.72,0,0,0-27.91,5.19l1.6.6c-3.33.85-5.51.63-9.08,2.32l3.23-.71-.22.11a81.81,81.81,0,0,0-13.23,5.76c-10.34,5.36-24,14.81-30.15,31.29-.16.37-.25.77-.41,1.16a23.18,23.18,0,0,0-3.41,9.52c-.45,1.61-.86,3.55-1.22,4.73-3.16,10.25-3.09,24.06-.06,36.42l-1.09-7.59a66.35,66.35,0,0,0,2.72,11.3l.13-1.52c2.19,12.24,12.52,29.69,24.7,37.21,6.3,3.46,8.2,3.77,7.33,1.68a44.4,44.4,0,0,0,17.76,15.8,41.75,41.75,0,0,0,7.43,2.73c-9.56-.26-18-3.08-27.46-11.74-.41-.39-.59-.32-.51,0a4.46,4.46,0,0,0,1,1.34c17.37,19.69,46.62,18.88,67.32,4.41,2.2-1.87,4.79-3.08,6.65-5.3l.81-.66.55-.47c.37-.3.72-.62,1.08-.94.8-.65,1.56-1.36,2.32-2.1.27-.29.57-.54.86-.81l-.8,1.09c-1.28,1.28-2.11,2.61-1.77,3.11.18.16.54.13,1-.05a55.43,55.43,0,0,1-15.15,13.63c-1.85.93-3.36,2.21-4.87,2.81-7.64,2.66-16,3.08-23.79,2.31l-1.93-.36a33.35,33.35,0,0,0-6.27-.22l-.87.4c-17.62-1.81-31.07-19.7-44.15-36.74-.6-.86-1-1.24-1.21-1l-.58-1.2c-1.5-2-3-4.28-4.55-6.76-.4-.5-.66-.76-.67-.45a2.92,2.92,0,0,0,.56,1.46c1.62,2.53,3.21,5,4.79,7.14l.43.37a5.83,5.83,0,0,0,1.1,2.17c12.41,18.28,25.77,34.52,44,37.46a45.38,45.38,0,0,1-25.5-12.44c-9.78-9.81-18.38-19.9-25.06-32.06-.33-.66-.69-1-.79-.89s0,.72.4,1.34c14.73,25,33.13,45.81,59.32,46.63l3.06.38a60.3,60.3,0,0,1-24.71-2.42c-21.5-12.49-38.87-39.64-47.1-63.62-.32-1.25-.84-2.22-1.14-2.15s-.28,1.19,0,2.48c3.27,14.82,10.76,29.11,19.8,42.21l-2.32-2.49-2.07-2.65c-5.48-8.66-11-17.44-14.5-27.07-1.52-3.51-2.91-6.41-3.8-6.44-.85.13-1,3.16.47,6.69l-.82-1.68c-.25-.56-.59-1-.66-.75a3.79,3.79,0,0,0,.38,1.6l3,5.95a140.81,140.81,0,0,0,34.68,49.38,138.8,138.8,0,0,1-38.61-53.76c.26.39.47.38.38-.17a6.75,6.75,0,0,0-.7-1.75c-.32-.45-.47-.32-.38.19-3.78-11.37-6.29-23.86-3.33-36.17.13-.71.07-1.36-.1-1.4s-.4.59-.5,1.4C67.68,132.7,75.54,153,85.72,169.65c10.85,15.86,22.41,33.63,42,41.44l6.07,2.58c.44.89,1.71,1.74,3.55,2.71-14.18-3.24-27.25-12.8-36-23.51A166,166,0,0,1,82.5,164.28c-.73-1.49-1.62-2.6-2-2.48s0,1.43.83,3a67.18,67.18,0,0,0,4.08,7.45c-1.65-1.75-3-2.78-3.74-2.63s-.73,1.53-.08,3.44c-6.82-10.87-13.34-22.18-16.82-35.25-.23-.73-.49-1.12-.58-.83a4.69,4.69,0,0,0,.25,1.83c4.71,19,14.38,34.57,25.1,48.81,7,10.93,16.45,25.06,33.55,33.34,24.33,11.69,50.33,8.33,69.74-2,7.5-3,14.16-7.46,20.34-12.34-.52,1-.79,1.74-.5,2l.35.15c-5.72,4.17-11.43,8.43-18.19,11.28-29.51,14.78-72,12.09-97.52-16.11-4-4.61-8-9.27-11.76-14.07a160.87,160.87,0,0,1-18-27.66,110.23,110.23,0,0,1-6.44-15.92c-.76-2.4-1.47-4.55-2.43-6.81-.63-1.48-2.8-5.13-2.65-6.65a37.4,37.4,0,0,0,.75,10.91c.81,4.16,1.13,8.54,2.89,12.46,1.26,2.83,2.76,5.05,3.65,8.12,2,6.85,4,14,9.4,19a256,256,0,0,1,19.28,20C107.68,222.36,133.31,232.48,156.91,231.7Zm-42.13-66.25a51.7,51.7,0,0,0,3,6.05c-1.66-2.37-4.32-5.76-7.57-10l-1.26-2A52.9,52.9,0,0,0,114.78,165.45Zm-1.93-93.13c-.51.71-1.6,2-.67,1.54-4.73,5-7.82,12-9.74,18.91l-1.2,7.91c-1.58,2.76-1.79,5.66-2.31,9.61-.58-6.48,1.33-14.15,3-20.91,3.22-7.23,7-14,12.48-19.15ZM90.49,96.56a66.08,66.08,0,0,1,24.4-38.39l2.6-1.67,4.11-1.93-.53.37-4.85,3.21,1-.46c-6.27,4-11.34,10.23-16,16.35a61.17,61.17,0,0,0-10.07,32.68A97.16,97.16,0,0,1,90.49,96.56ZM110.2,122.3v0L110,124.1S110,123.36,110.2,122.3ZM103.46,133v0l.24.42,1.08,2h0l.29.49.89,2.49a9,9,0,0,0,1.28,2.2l.18,1.23a46.43,46.43,0,0,0,3.11,6.37c.08.78.2,1.56.3,2.34a76.16,76.16,0,0,1-6.74-15.31,10,10,0,0,0-1.54-3.28c-.46-.5-.56.12-.17,1.45a88.43,88.43,0,0,0,4.62,14l.74.91a4.64,4.64,0,0,1-.55-.43c.2.46.44.93.65,1.39-.24-.31-.48-.59-.73-.92l-.52-1.05a18.13,18.13,0,0,1-1.43-1.85,80.34,80.34,0,0,1-7.06-23.93c0-.46.63.23.63-.63l0-1.33.72,4.45A93.71,93.71,0,0,0,103.46,133Z"/><path class="cls-5" d="M252.78,128.75c3.4,25.08-4,52.68-22.74,73-.64.67-1.11,1.29-1,1.42s.69-.3,1.3-.92c18.94-20.41,26.41-48,23.11-73.28a3.23,3.23,0,0,0-.58-1.55C252.64,127.4,252.64,128,252.78,128.75Zm-126.6,79.1c.53,0,.56-.12.09-.39a5.72,5.72,0,0,0-1.68-.55c-.45,0-.51.15-.12.39A5.32,5.32,0,0,0,126.18,207.85Zm12.42-24.42a6.37,6.37,0,0,0,.8-.08l-.48-.16h-1.43Zm92.14,14.33a88.33,88.33,0,0,0,17.79-70.13l-1.37-6.87a47.57,47.57,0,0,0-2.11-6.63C238,96,234.3,85.1,220.2,67c16.5,20.2,23.17,33.32,30.54,55.58.39,1.53.91,2.49,1.16,2.26a6.65,6.65,0,0,0-.26-3.33c-3.92-14.83-10.53-27.55-17.37-39.07L229,73.88A50.55,50.55,0,0,0,218.72,62.7a71.67,71.67,0,0,0-22.84-12.07c-7.37-5.49-25.9-11.16-43.76-9.21a69.6,69.6,0,0,0-18.82,4.21A62.43,62.43,0,0,1,142,43.85a67.44,67.44,0,0,0-22.34,9l-1.9.82c-8.29,4-17.31,10.17-23.76,19.14a111,111,0,0,0-13.1,23.54l1.41-.81c-1.39,3-2.86,4.41-3.79,8l1.43-2.79-.05.22a77.49,77.49,0,0,0-3.8,13.15c-2.34,10.81-3.68,26.48,4.63,41,.17.34.41.65.59,1a22,22,0,0,0,4.9,8.26c.91,1.3,2.08,2.78,2.71,3.75,5.58,8.51,15.71,16.82,26.59,22.08l-6.21-3.8a63.24,63.24,0,0,0,9.9,4.85l-1-1c10.27,5.8,29.28,8.82,42.13,4.47,6.36-2.52,7.73-3.71,5.67-4.35a42.06,42.06,0,0,0,22.3-3.41,40.81,40.81,0,0,0,6.48-3.78c-6,6.83-13.16,11.31-25.19,13-.53.06-.59.24-.32.37a4.11,4.11,0,0,0,1.61.05c24.9-.77,42-22.64,44-46.52,0-2.74.64-5.37.15-8.07v-1.68c0-.45,0-.9,0-1.35,0-1-.06-2-.14-3,0-.37-.05-.74-.08-1.12l.31,1.24c.17,1.71.64,3.12,1.21,3.18.22,0,.42-.31.55-.75a52.8,52.8,0,0,1,.8,19.33c-.44,1.91-.43,3.8-.89,5.26-2.68,7.19-7.45,13.57-12.72,18.78l-1.42,1.2a29.49,29.49,0,0,0-3.95,4.44l-.25.88c-12,11.78-33.19,10.79-53.57,10-1-.07-1.52,0-1.44.3l-1.23-.3c-2.34-.1-4.94-.39-7.69-.76-.61,0-.95,0-.73.21a2.81,2.81,0,0,0,1.4.47c2.83.35,5.59.66,8.12.81l.53-.08a5.54,5.54,0,0,0,2.25.51c20.86,2,40.82,2.06,54-9.5a43.1,43.1,0,0,1-24.52,11.11c-13.08,1.21-25.67,1.38-38.59-1.09-.68-.15-1.16-.11-1.13,0s.55.41,1.22.51c27.22,4.39,53.53,3.51,70-15.13l2.14-2a57.43,57.43,0,0,1-16.73,16.6c-22.14,8.15-52.49,4.42-75-4.08-1.11-.52-2.13-.73-2.26-.47s.7.93,1.83,1.47c12.81,6.59,27.79,9.76,42.84,11.09l-3.23.18-3.18-.09c-9.66-1.24-19.42-2.5-28.57-5.78-3.48-1-6.44-1.77-7-1.13s1.7,2.64,5.17,3.7l-1.72-.41c-.57-.16-1-.14-.95,0a3.6,3.6,0,0,0,1.4.7l6.18,1.4a133.82,133.82,0,0,0,57.06,4.53,131.65,131.65,0,0,1-62.65-4.32c.45.05.57-.1.11-.37a6,6,0,0,0-1.7-.55c-.53-.05-.52.14-.12.39h0C110,202.29,99.32,196.56,92.13,187c-.45-.52-1-.87-1.09-.78s.19.66.71,1.23c12.67,15.67,32.29,22.23,50.58,24.85,18.15,1.66,38.14,4,55.7-5.64l5.57-2.89v0c.91.22,2.31-.19,4.13-.94-10.95,8.39-25.84,12.15-38.95,12a156.36,156.36,0,0,1-32.33-3.51c-1.52-.36-2.87-.38-3,0s1,.85,2.68,1.22a65.43,65.43,0,0,0,7.92,1.52c-2.28.15-3.87.53-4.18,1.14s.67,1.46,2.46,2.14c-12.07-1.59-24.28-3.67-35.93-9-.68-.28-1.12-.32-1-.08a4.33,4.33,0,0,0,1.48.92c16.71,8,34,10.42,50.86,11.2C170,221.88,186,223.49,202.42,216c23.27-10.7,36.55-31.73,40.78-52.14a78.2,78.2,0,0,0,3.29-22.33c.45,1,.79,1.64,1.19,1.61L248,143c-.42,6.71-.76,13.46-2.77,20.12-7,30.51-34.73,60-70.78,61.53-28.27.67-58.54-.07-86.41-21.2-3.18-3.13-5.91-5.12-6.16-4.24s2.24,4.5,5.64,7.66c27.41,20.74,55.33,22,83.24,21.26C194.15,228.09,217,215.48,230.74,197.76Zm-73.9-9.3a49.73,49.73,0,0,0,6.26,1.46c-2.74-.22-6.83-.32-11.88-.5l-2.24-.3A51.12,51.12,0,0,0,156.84,188.46ZM87.62,133.53c.21.8.47,2.37.72,1.42.79,6.47,4.06,13,7.93,18.56l5,5.66c1.06,2.83,3.05,4.73,5.62,7.5-5.08-3.49-9.53-9.53-13.43-14.87-3.34-6.73-6-13.54-6.45-20.71Zm4.19,31a62.67,62.67,0,0,1-13.3-41.06l.35-2.91,1.08-4.16,0,.6-.59,5.48.28-1c-.89,7,.62,14.48,2.26,21.59a58.13,58.13,0,0,0,17.79,27.14A91.76,91.76,0,0,1,91.81,164.53Zm30.73,1.17,0,0,1.16,1.25A17,17,0,0,1,122.54,165.7Zm3.72,11.38,0,0,.44.08,2.13.42v0l.53.09,2.36.87a8.55,8.55,0,0,0,2.38.38l1,.61a44.74,44.74,0,0,0,6.53,1.59c.63.41,1.27.79,1.91,1.2A72.75,72.75,0,0,1,128.3,178a9.67,9.67,0,0,0-3.33-.86c-.64,0-.24.48,1,1a83.83,83.83,0,0,0,13,5.07h1.13a3.88,3.88,0,0,1-.65.15c.45.13.94.23,1.4.36-.37,0-.72,0-1.11,0l-1.09-.26a19.15,19.15,0,0,1-2.21-.07A77,77,0,0,1,114.63,174c-.35-.26.55-.33-.08-.84l-1-.8,3.69,2.17A84.43,84.43,0,0,0,126.26,177.08Z"/><path class="cls-1" d="M266.77,177.66l-3.1-1.74,1.28,1.37C265.55,177.82,266.09,177.68,266.77,177.66Zm-11.31-6.53a16,16,0,0,0,2.7,1.67A10.44,10.44,0,0,0,255.46,171.13Zm3.93,3a6.4,6.4,0,0,0,.43.76Zm1-.39-.54-.16,1.06.51Zm-.56,1.15.22.4A3.61,3.61,0,0,0,259.82,174.93Zm-.43-.76c-.2-.42-.2-.74.44-.56h0l-1.68-.82A7.36,7.36,0,0,1,259.39,174.17Zm-4.61,4.19c-.64-.2.42-1.54-.89-1.93a32.28,32.28,0,0,1-7.62-4c-1.29-.52-1.72-3.25-3-3.74-2.51-1.67-9.91-5.42-6.41-2.31,5.24,4.72,9.29,7.06,14.5,10.56a131.14,131.14,0,0,0,14.1,6c1.32.57,2.41,1.42,3.64,2-1.53-.91-3-2.12-4.64-3.24C262.38,180.05,258.49,180.42,254.78,178.36Zm-52-52.16a4.57,4.57,0,0,0-1.53-3,8.75,8.75,0,0,1-2.13-4.26,26.09,26.09,0,0,1-.87-4.86,4.65,4.65,0,0,0-1-2.27c-.38-.52-1.1-.73-1.3-1.36-.12-.36,0-.67-.13-1a7.75,7.75,0,0,0-1-1.36c-1.29-1.77-2.54-3.55-3.75-5.36-2.41-3.57-4.69-7.23-6.8-11q-1.8-3.17-3.43-6.43c-.38-.74-.69-1.55-1.11-2.26-.15-.25-.37-.41-.51-.65s-.23-.64-.39-.94a6.1,6.1,0,0,1-.36-1c-.55-1.68-1.4-3.21-2.1-4.84-.1-.22-.2-.44-.29-.67l-.46-1-.11-.27h.09l-1.55,0c-.51,0-1,.05-1.53.06s-.68-.28-1.08-.31a4.72,4.72,0,0,0-1.5,0c-.73.26-1,1.52-1.53,2a23,23,0,0,0-1.79,1.9c-.13.49-.25.94-.35,1.37a12.44,12.44,0,0,1-2.8,0c0,.17.28,1.31.39,1.26l-1.82.79c-1.31.59-2.9.42-4.23.85-1,.34-1.2,2.6-1.84,2.77a5.68,5.68,0,0,1-2.17.17c-.63-.08-1.2-.36-1.82-.48a3,3,0,0,1-1.33-.4,17,17,0,0,0-1.53-1.15,6.33,6.33,0,0,0-2.43-.76,5.65,5.65,0,0,0-2,.17,3.58,3.58,0,0,1-1.09-.22l-1-.21-1.72-.35-1.34-.27c-.49-.11-.84-.6-1.37-.54a6,6,0,0,1-.63,1.86l-.44,1.06-2.69-.55v4.2c0,.87,0,1.81,0,2.78l-.66,1.58-7,18c-4.66,11.69-9.49,24.38-17.36,32.72-4.59,6.51-17.39,13.16-27.5,16-11.63,6.18-3.42,11.47-2.6,11.68,10.2,2.55,20.6,0,27.7-8.09.79-.91,1.74-1.72,2.47-2.58,1.27-1.49,1.39-3.59,2.78-5,1.16-1.19,3.15-1.95,4.44-3.15,2.74-2.54,4.1-6,6-9.16,1.52-2.53,3.36-4.9,4.89-7.44.76-1.28,1.51-2.56,2.29-3.82,1.33-2.17,2.84-4.15,4.33-6.22.48-.68.58-1.49,1-2.17.29-.43.7-.78,1-1.19a4.78,4.78,0,0,0,.74-1.48,4.29,4.29,0,0,1,.22-.72c.18-.4.47-.74.63-1.14a6.48,6.48,0,0,0,.23-1.29c.05-.21.22-.35.26-.58a4.17,4.17,0,0,1,.08-.7,7.29,7.29,0,0,0,.42-2.65c0-1,1.67.91,1.83,1.1.83,1,1.61,2,2.34,3.09.15.22,1.48,2.19,1.48,2.22,0-.25,1.83-1.56,2.08-1.75a30.87,30.87,0,0,0,5.56-5.33c.19-.26.53-1.31.8-1.44.6-.28,1,.65,1.28,1.1a14.7,14.7,0,0,0,2.13,2.33,38.69,38.69,0,0,1,4.52,4.8c.47-.16,1.27-2.48,1.42-3,.6-2,.59-4.28.94-6.36.23,0,.42.22.59.37a15.24,15.24,0,0,0,4.87,2.59c1.65.65,3.13,1.55,4.73,2.21.31.13.72.32,1,0,.41-.51.06-1.58.07-2.19,0-.83.15-1.64.23-2.46s.13-1.74.18-2.61c0-.44,0-.44.36-.41a9.49,9.49,0,0,1,4,1.26,11.09,11.09,0,0,1,1.76,1.19c.48.4.82.92,1.29,1.32,1.09.92,2.06,2,3.08,3s2.19,2.14,3.3,3.19l1.85,1.75a28.63,28.63,0,0,0,2.26,2.41c1.28,1,2.64,1.91,4,2.79a32.17,32.17,0,0,0,4.13,2.12A3.23,3.23,0,0,0,202.75,126.2Zm-3.66-11.44c.19.61,2.12,2.25,2.63,3a19.67,19.67,0,0,1,2.29,4C201.77,121,199.72,116.83,199.09,114.76Z"/><path class="cls-6" d="M139.39,112.5a14.81,14.81,0,0,0-1.31-1.32c-.55-.56-1.58-1.5-1.69-2.19s.55-.79,1.07-1.07c.26-.13.4-.34.68-.43l1.21-.34A5.88,5.88,0,0,1,141,107a3.84,3.84,0,0,0,2.1-.35c.32-.21.43-.66.8-.75s.73.11,1.06.12a10.75,10.75,0,0,0,1.68.17c1.2-.09,2.39-.25,3.59-.39.76-.09,1.51-.2,2.26-.34.16,0,.49-.17.66-.07s.19.32.26.43a5.22,5.22,0,0,0,.55.6,1.32,1.32,0,0,1,.51.83c0,.1-.12.27-.13.38a2.23,2.23,0,0,0,.09.63c0,.29,0,.61,0,.9s.24.28.09.5a.66.66,0,0,1-.59.16c.07.71-1.08,1.35-1.54,1.79a22.56,22.56,0,0,0-2.12,2.25,2.25,2.25,0,0,1-.52.5,3.93,3.93,0,0,0-.64.36,11,11,0,0,0-1.5,1.77,8.66,8.66,0,0,1-1,1c-.53.56-1.13,2.55-2.07,2.52-.48,0-.63-.53-.84-.89s-.53-1-.82-1.49a10.16,10.16,0,0,0-1-1.65c-.49-.57-.61-1.25-1.11-1.81A19.69,19.69,0,0,1,139.39,112.5Z"/><path class="cls-6" d="M163.3,108.69a.5.5,0,0,1-.07-.26c0-.43.33-.5.62-.72a14.77,14.77,0,0,1,4.79-2.48c-.1-.45.9-.75,1.22-1,.61-.39,1.33-.52,1.8-1.11s1.47-.76,2.15-1.33a2.36,2.36,0,0,1,.4.79c0,.07-.2.34-.18.53s.13.44.14.72c0,.69,0,1.38,0,2.06a5.19,5.19,0,0,0,.09,1.68,3.83,3.83,0,0,0,.79,1.12c-.58.73-.68,1.42-.05,2l-.3.21a1.41,1.41,0,0,1,.09,1.3c-.18.46,0,.9-.25,1.37a1.47,1.47,0,0,0-.21.73c0,.26.15.54,0,.8-.18.5-2.61-.71-2.95-.84s-.62-.25-.88-.38-.31-.22-.51-.31a2.85,2.85,0,0,0-.5-.14c-.76-.2-1.41-.92-2.14-1.23a10.33,10.33,0,0,1-1.83-1.27,5.8,5.8,0,0,1-.73-.67,2.12,2.12,0,0,1-.56-.59c-.09-.18-.17-.47-.33-.59s-.25,0-.36-.12A.74.74,0,0,1,163.3,108.69Zm11.1.51c-.05-.1.06-.16.16-.23-.39-.23-.1-.56-.34-.78C174,108.48,173.81,109.16,174.4,109.2Z"/><path class="cls-6" d="M164.85,108.19c0,.34,0,.68-.09,1s-.48.66-.68,1-.28.94-.5,1.38a7.21,7.21,0,0,0-.64,1.61,8.08,8.08,0,0,1-.51,1.53,4.44,4.44,0,0,0-.24.49,8.47,8.47,0,0,1-.09.85c-.07.23-.28.37-.32.61s-.06.36-.11.57a1.94,1.94,0,0,1-.1.24c0,.09-.17.17-.21.25s-.09.16-.15.27-.14.14-.24.25-.07.27-.09.47a2.56,2.56,0,0,1-.39,0,1.64,1.64,0,0,1-.44.09c-.23,0-.29-.24-.39-.42s-.36-.25-.54-.36-.26-.27-.39-.44c-.41-.53-1-.84-1.28-1.49a1.28,1.28,0,0,0-.11-.33c-.06-.09-.16-.15-.21-.25a8.93,8.93,0,0,0-1.29-1.32,11.29,11.29,0,0,1-1.33-1.6,5.48,5.48,0,0,0-.82-1.12c-.45-.39-1-.58-1.45-1s-.79-.33-1.12-.56-.65-.31-.79-.66a2.55,2.55,0,0,0-.56-.93c.1-.22.28-.16.48-.2.57-.11,1.11-.38,1.66-.46a4.77,4.77,0,0,0,1.37-.19c.11,0,.12-.14.23-.18a3.4,3.4,0,0,1,.84-.06l1.7-.12,2.34-.17,1.7-.12a6.29,6.29,0,0,0,.95-.24,18.71,18.71,0,0,1,2.81-.29,2,2,0,0,1,1.21.18c.14.09.1.25.36.23A6.15,6.15,0,0,0,164.85,108.19Z"/><path class="cls-1" d="M236.71,155.31c2.28,1.49,3.64,2.44,4.39,3,.4.13.92.33,1.62.6l-.39-.31c-2.3-1.66-4.6-3.32-7-5.06-1-.65-1.94-1.24-2.77-1.7Zm4.39,3c-3.4-1.15,3,2.26,0,0ZM208,127.22c-.37-.45-1.11-1.36-1.48-1.83l-.8-.69,1,1.3ZM202.68,126c1.52,1.78,3,3.61,4.62,5.28-3.17-3.56-6.22-7.29-8.86-10.24l1,1.49A29.33,29.33,0,0,1,202.68,126ZM224,152.85l-.33-.27-1-.74Zm0,0c5.26,4.49,10.65,8.9,16.11,13.5,6.3,4.89,12.46,9.63,19,14.45a36.53,36.53,0,0,0,4.24,2.78c.85.25,1.7.44,2.45.59-2.07-1.24-4.19-2.7-6-3.95.25.14.26,0,.29,0-2.73-2.13-4.81-3.44-7.62-5.61,4.28,2.38,9.14,6.72,14.2,9.66l.8,0c-10.13-6.78-20.66-15.24-30.48-22.6l-5.46-4,2.6,2.29-2.87-2.37L230,156.41c-3-2.27-6.17-4.62-9.37-7.31,2.57,2.11,5.29,4.11,8,6.16-5.32-4.45-10.55-9.42-15.44-14.08-1.87-1.68-4-3.9-6.18-6.12l1.33,1c.76.83,1.55,1.71,2.31,2.53-.28-.62.89.81,1,.65,2.72,2.38,5.54,4.61,7.92,6.41,3.74,3,7.26,6.25,10.9,8.43,1.06.59,2.91,2.26,4.39,3.34l2.06,1.34-2-1.84c-.42-.46,12.47,9.42,12.2,8.57,0,0-10.52-8-17.87-14.12-1.24-1.46,2-.4,3,.3l.38.2-3.19-2.74c-1.64-1.29-3.33-2.55-5-3.89-2.61-2.17-5.2-4.46-7.71-6.88l2.13,1.77,1.06.84c2.89,2.31,6.08,5.22,9.49,8.16l6,4.44.16.1c-2.39-2-5-4.19-7.18-6.15a132.18,132.18,0,0,1-12.52-10.85l2.12,1.78c3.12,2.43,6.59,5.79,10.4,9.07,4.13,3.17,8.66,6.46,12.81,9.44-2.74-2.26-5.9-4.87-8.68-7a167.32,167.32,0,0,1-27.86-26.13,39.2,39.2,0,0,1-3.18-3.26c-2.26-2.64-4.88-6-6.81-8.75.18.62-.79-.81-.87-.73a58.22,58.22,0,0,1-6.44-9.54,6.71,6.71,0,0,1-.45-1.12c-3.57-4.17-6.29-8.89-12-7.6-2.49.56-2.69,3.23-1.85,5.47,1,2.67,3.5,4.37,5.28,6.44s3.31,4.53,4.73,6.14c1,1.13,1.94,2.12,2.9,3a155.23,155.23,0,0,0,10.82,13.44c-2.77-3.52-5.48-6.87-8-10.75-.09-.13-.19-.25-.28-.37l.77.67c2.32,3.11,4.59,6,6.6,8.15-1.83-2.4-3.68-4.69-5.42-7.24-.47-.69-1-1.34-1.45-2l.67.51,1.16,1.59c0,.12,0,.22.07.28s.29.26.43.38a80.15,80.15,0,0,0,6.94,8.26l2.61,2.86c0,.06.07.25.45.61s.56.55.84.8a240.06,240.06,0,0,0,21.62,21.49c5,3.86,10.3,7.63,15.64,11.73C234.39,160.7,229.38,157.06,224,152.85Zm-37.85-40.59a1.43,1.43,0,0,1,.47.71l-.81-1A3.67,3.67,0,0,1,186.17,112.26Zm-2.92-1.38c-.74-.82-.37-.75.34-.36.48.73,1,1.46,1.47,2.19l.1.14C184.56,112.25,183.94,111.61,183.25,110.88Zm5.82,5.84c-.35-.36-.71-.71-1-1-1.25-1.67-2.45-3.19-3.6-4.66.34.22.69.46,1,.69l1.53,2.16a1.18,1.18,0,0,0,.39.53h0C187.93,115.19,188.5,116,189.07,116.72ZM216,140c.41.41.79.81,1.16,1.23l.38.36-.23-.19c1.16,1.35,2.27,2.66,3.79,4.13l.49.32-.19.26a49.68,49.68,0,0,1-7.94-7.35c.55.26,1.1.5,1.68.74.73.69,1.47,1.33,2.17,1.9l-.15-.17c-.51-.47-1-1-1.52-1.45C215.77,139.8,215.9,139.87,216,140Zm-22.14-19.46-.36-.42s.05.05.08.06l.28.36,1.25,1.4.34.55Q194.67,121.48,193.87,120.49Zm8.41,9.81c-1.27-1.4-2.52-2.8-3.76-4.24.54.48,1.11,1,1.72,1.45.85,1,1.73,2,2.65,3.14C202.69,130.53,202.48,130.4,202.28,130.3Zm3.59,3.35a1.73,1.73,0,0,1-.6-.69,16.63,16.63,0,0,1,1.36,1.27C206.37,134.05,206.12,133.86,205.87,133.65Zm57.59,51.62c0-.06.09-.06.56.36l-.56-.36s0,.17-.3,0a32.05,32.05,0,0,0,6.86,3.27l1-.19c-6.21-1.57-11.09-6.43-15.3-8.74C258.45,181.76,260.5,183.27,263.46,185.27Zm8,2.47.59.13C271.46,187.64,271.41,187.67,271.41,187.74ZM228.6,155.26l1.35,1.15,1.63,1.2-.94-.82Zm8.44,6.36,5.07,3.63c8,5.52,17.48,13.87,26.1,18.79a.79.79,0,0,0,.19-1.06c-8.7-5.8-18.8-13.6-27.54-20.79l-.22-.15c-4.1-2.58-10.29-7.86-15.14-11.33a123,123,0,0,1-13.85-11.49c6,6.55,12.34,11.91,19,17.57Zm-50.17-61.24c5.46,8.81,11.41,16,17.75,23.4l1.06.92c-3.93-5.11-8.18-10.21-11.7-14.62-.72-.86-1.91-2.08-2.55-3-3-4.59-5.87-8.88-8.75-13.29,1.33,2.1,2.67,4.31,4.07,6.42Z"/></g></g></svg>