<svg xmlns="http://www.w3.org/2000/svg" viewBox="0 0 846.99 82.8" preserveAspectRatio="none"><defs><style>.cls-1{fill:#f3ebdf;}</style></defs><title>bg_title</title><g id="レイヤー_2" data-name="レイヤー 2"><g id="svg3336"><path class="cls-1" d="M138.66,4.52c1.24,0,1.76-.08,1.14-.26a5,5,0,0,0-2.25-.07C136.92,4.33,137.42,4.48,138.66,4.52Z"/><path class="cls-1" d="M134.61,4.81a1.25,1.25,0,0,0-1.23-.09c-.52.19-.37.35.38.4S134.82,5,134.61,4.81Z"/><path class="cls-1" d="M0,68.46a.66.66,0,0,0,.62.68.66.66,0,0,0,.67-.64.65.65,0,1,0-1.29,0Z"/><path class="cls-1" d="M406.87,74.94a9.1,9.1,0,0,0-2.9-.09c-.8.13-.15.28,1.45.33S407.67,75.12,406.87,74.94Z"/><path class="cls-1" d="M463.63,74.77c-.63.15-.13.3,1.11.34s1.76-.08,1.14-.27A5.34,5.34,0,0,0,463.63,74.77Z"/><path class="cls-1" d="M473.27,75.72a9.11,9.11,0,0,0-2.9-.09c-.8.13-.15.28,1.44.33S474.06,75.9,473.27,75.72Z"/><path class="cls-1" d="M261.14,78.11c-5.44-.11-7.83,0-6.08.32,3.12.54,14.21.67,14.73.17C270,78.43,266.08,78.21,261.14,78.11Z"/><path class="cls-1" d="M412.05,74.46c-.63.14-.12.29,1.12.33s1.75-.08,1.13-.26A5,5,0,0,0,412.05,74.46Z"/><path class="cls-1" d="M426.9,74.29a3.65,3.65,0,0,0-1.94-.08c-.63.14-.28.3.79.35S427.33,74.49,426.9,74.29Z"/><path class="cls-1" d="M685.93,1.32c-4.26.06-14.85,0-23.53-.09s-18.12-.14-21-.07-11.4.13-19,.13c-14,0-18.23.05-25.81.42-2.3.11-9,.36-15,.54s-11.15.46-11.63.61-6.38.41-13.13.58-15,.51-18.4.75-10.64.6-16.14.8-13.79.52-18.41.74-17.24.42-28.06.47-21.42.12-23.54.17-16.93-.15-32.88-.43c-40.57-.73-58-.37-76.79,1.55-3.91.41-14.67,1.25-23.91,1.89S301.52,10.63,301,10.77s-3.44.32-6.46.43-11.59.43-19,.73-16.32.6-19.69.69-10.63.29-16.13.46-13.61.07-18-.24-8.17-.3-8.38,0a4.05,4.05,0,0,1-1.84,1c-1.12.31-1.45.15-1.43-.69s-.34-1-1.75-.73c-1,.2-8.89.29-17.58.19s-18.55,0-21.93.16-10.77.1-16.44-.19-15-.67-20.77-.86-10.46-.61-10.45-.93-6.26-.66-14.3-.78c-12.45-.17-14.2-.32-13.35-1.11a9.06,9.06,0,0,1,3.25-1.48c1.25-.32,1.81-.61,1.23-.67a33.83,33.83,0,0,0-6,1.39c-4.25,1.27-6.18,1.45-13.17,1.23-15.17-.47-54,.72-54.64,1.68-2,3.05-2.86,3.91-5,5-3,1.42-3.14,2-1.47,5,1.46,2.62,2.44,3.2,7.32,4.37A24.82,24.82,0,0,1,30,27c.81.51,5.2.91,12.16,1.13,8.61.27,11,.54,11.17,1.24s-.33.79-2.54.38c-2-.38-2.54-.33-1.85.19a6.28,6.28,0,0,0,2.91.78,4.53,4.53,0,0,1,2.64.81c.42.46,4.31.85,10.45,1.06,8.06.27,9.72.48,9.41,1.22-.42,1,.94,1.26,1.9.34.35-.33,4.27-.68,8.7-.76,6.17-.12,7.83,0,7.07.57s-.21.66,2.51.43c4.05-.36,16.8.79,16.78,1.5,0,.27-3.29.63-7.28.8-7.62.34-10.47.35-25.47,0-9.09-.19-9.17-.18-9.07,1.28l.11,1.47-21,.45c-23.54.49-31.85,1.29-35.08,3.36-1.18.75-1.65,1.23-1,1,4.94-1.43,12.22-2.3,21.89-2.63l11.94-.41C57,41,91.42,42.4,96.88,43.44a103.33,103.33,0,0,0,16.86,1.68l5,.22-.32,2.44c-.28,2.16-.54,2.47-2.19,2.59a44.6,44.6,0,0,1-7.45-1c-3.86-.76-5.78-.89-6.26-.43s-3.72.5-8.43.26c-5.07-.26-7.74-.17-7.75.29s.48.7,1.1.72l17.79.73,16.66.68,1.51,3.17c1.35,2.82,1.86,3.27,4.79,4.19,3.29,1,14.06,2.1,31,3.07,11,.64,17.18,1.53,17.47,2.52.14.48-1.73.83-5.47,1-7,.33-23.42-.41-23-1s-2.69-1.28-3.36-.71c-1,.84-11.4,1.5-19.57,1.25-4.43-.14-12.71-.07-18.39.15s-19.76.4-31.28.38-21.76,0-22.73.11c-2.85.24-2.76.83.22,1.48,3.92.85,35,1.55,40,.91a81.88,81.88,0,0,1,10.54-.34,83.47,83.47,0,0,0,8.66-.07c4.73-.6,41.93.2,42.72.91s13.43,1.5,17.35,1c2.26-.27,2.43-.18,2.38,1.35,0,.9-.27,1.66-.53,1.68-3.3.25-9.35.26-25.65,0-18.91-.26-22.79,0-20.84,1.14.91.55,11.89,2.14,18.48,2.67h0c7.12.58,47,1.71,46.74,1.34-.12-.22,5.77-.2,13.09,0,20,.63,36.55.36,38.66-.65s17.14-2.06,32.14-2.36c2.84-.05,9.81-.3,15.5-.55S303,73.92,303.56,74s4.46-.25,8.73-.63c12.92-1.16,23.66-2.14,28.78-2.64,2.66-.26,7.75-.55,11.3-.64s10.53-.45,15.5-.81c13.64-1,28.19-1,68-.32,3.68.06,17.77,2.22,20,3.06a37.58,37.58,0,0,0,9.39,1.26,45.9,45.9,0,0,1,7.14.59,32.94,32.94,0,0,0,5.56.87c2.78.29,5.2.75,5.38,1,.53.78,3.77,2.21,5.09,2.26a1.56,1.56,0,0,1,1.44.81c.17.6,2.42.67,9.55.32,8.49-.42,33.95-.71,37.06-.43,7.8.72,20.22,2.63,18.93,2.91-.89.2-6.4.39-12.25.42s-10.78.22-11,.43c-.52.54,25.37.45,30.29-.1,2.32-.26,7.4-.56,11.31-.65,8-.19,18.95-.85,26-1.55a79.87,79.87,0,0,1,8.66-.34,64.2,64.2,0,0,0,8.21-.41l8.47-1.06c2.31-.29,7.11-.73,10.67-1s8.35-.67,10.67-1,7.26-.7,11-1,8.39-.7,10.35-1,5.45-.62,7.76-.73l16.47-.8c6.74-.32,14-.82,16.15-1.11s7.8-.54,12.59-.57c11.66-.07,18.07-.48,18.1-1.16,0-1.1,3.69-2.27,8.14-2.6l7.4-.54c3.06-.21,4.43-.76,2.1-.83-.77,0-1.39-.34-1.38-.7s1.18-.62,2.6-.57c1.8.05,2.58-.2,2.6-.86s.69-1.12,1.49-1.35a4.14,4.14,0,0,0,1.87-1c.23-.33,3.58-.8,7.45-1s7.33-.68,7.7-1,3.57-.77,7.13-1.07c9.82-.84,13.44-1.57,15.13-3.06,1.22-1.09,2.87-1.46,8.11-1.83s6.55-.67,6.42-1.39a6.65,6.65,0,0,1,.24-2.43c.37-1.31.83-1.5,3.47-1.43,4.3.12,7.8-.71,9.51-2.25a5.28,5.28,0,0,1,3.11-1.26c2.16.06,5.73-1.1,5.75-1.89,0-1,4.25-2.35,5.86-1.87s3.26-1,3.32-3c0-1.24-2.39-2.24-3.47-1.43s-10.61,1.06-11,.4c-.17-.28.88-1.74,2.33-3.24,2.84-2.94,3-4.59.23-2.88-1.88,1.17-4.23,1.34-19.19,1.4-9.14,0-10.2-.06-9.45-.92A5.38,5.38,0,0,1,809,30.12c.92-.21,1.55-.5,1.41-.66a6.4,6.4,0,0,0-2.71.32c-2.83.7-4,0-4.37-2.55-.47-3,1.3-4.11,7.73-4.7a35.87,35.87,0,0,0,7-1.1c1.32-.66,1.55-1.81.38-1.88-1.51-.09,1.74-1.89,3.32-1.84,1.32,0,1.44-.11.79-1a4.15,4.15,0,0,0-2.78-1.08c-3.71-.13-6.59-1-7.26-2.14-1.82-3.19,2.2-7.49,8.09-8.64l3.28-.65-2.09-.81a15.17,15.17,0,0,1-3.64-2.14C816.73.14,815.71,0,810.26,0c-16.1.1-24.27.36-31.14,1-4.18.38-20.56.56-37.41.42C711,1.14,699.49,1.13,685.93,1.32ZM87.26,40.64c-5.83-.68-12-1.33-13.66-1.45s-3-.49-3-.83c0-.9,30.78,1.71,40.52,3.44C117.3,42.9,99,42,87.26,40.64Zm27.87-4.59c-1.29.79-3.25.73-3.22-.1,0-.36,1-.63,2.11-.58C115.61,35.42,115.88,35.59,115.13,36.05Zm109,4.28a11.3,11.3,0,0,1,3.22.11h0c.79.18,0,.28-1.78.22S223.17,40.45,224.15,40.33Zm-47.31,32.4c-1.5,0-1.56-.14-.62-1s2.33-.71,2.29.48C178.5,72.51,177.75,72.76,176.84,72.73Zm36.82-.5c-27.2.19-32.92-.13-34.6-2-1.09-1.17,55.67-.85,57.42.33C237.42,71.23,224.46,72.16,213.66,72.23Zm66.75-31.74c-.5.48-3.44.55-19.37.45h0c-6,0-15.31,0-20.63,0s-8.94-.17-8-.45,9.49-.6,19-.74,19.94-.39,23.07-.54C279.72,38.92,281.61,39.34,280.41,40.49Zm11.38-.18c-.66,0-2.94.09-5.08.25-2.59.2-4,0-4.31-.46s.22-.76,1.39-.78l5.52-.13c2.1-.06,3.7.17,3.69.53S292.45,40.33,291.79,40.31Zm8.62-.38c-2.9.65-6.14.55-6.12-.2,0-.37,1.74-.56,4-.45C301.54,39.45,302,39.58,300.41,39.93ZM348,34.74c0,.8-4.73,1.17-6.29.49-.72-.32-.17-.48,1.56-.46a14.61,14.61,0,0,0,3.72-.33c.56-.2,1-.07,1,.29Zm2.9.06c-1.42,0-1.92-.2-1.11-.33a7,7,0,0,1,2.57.09h0C352.94,34.74,352.28,34.85,350.87,34.8Zm46.63-1.17c-1.86-.08-10.21.15-18.56.53h0c-8.35.37-17,.77-19.13.89s-4.11-.06-4.33-.44c-.34-.6,7.45-1.66,14.8-2,22.68-1.08,30.66-.92,30.61.62C400.88,33.52,399.35,33.71,397.5,33.63Zm23.23-.11c-6.13.06-12.65.2-14.48.31-3.52.22-5.33-.87-2.28-1.36,3.69-.59,28.72-.32,28.31.31C432.06,33.12,426.86,33.46,420.73,33.52Zm65.61-.31c-1.06,0-1.42-.2-.79-.35a3.64,3.64,0,0,1,1.94.09C487.92,33.14,487.4,33.26,486.34,33.21Zm110.82.37h0c-.37.35-5.44.63-11.27.61-12.2,0-11-.79,2.53-1.62C596.76,32.07,598.53,32.27,597.16,33.58Z"/><path class="cls-1" d="M44.18,36.43c0,.36.58.67,1.31.7s1.16-.26.95-.63a1.71,1.71,0,0,0-1.31-.7C44.62,35.79,44.2,36.07,44.18,36.43Z"/><path class="cls-1" d="M47.13,30.19a3.62,3.62,0,0,0-1.93-.08c-.64.15-.28.3.78.35S47.56,30.39,47.13,30.19Z"/><path class="cls-1" d="M2.38,15c1.38.62,1.66.56,2.06-.4.21-.51,1.92-1.15,3.82-1.44l3.44-.53-3.22-.17C5.15,12.27.55,14.18,2.38,15Z"/><path class="cls-1" d="M3.66,39.69a5.71,5.71,0,0,0,2.54-.61c2.19-1.1,12.94-2.09,24-2.21,5.61-.06,10-.32,9.69-.58-.79-.74-21.94-.19-27.29.71A61.21,61.21,0,0,0,5.1,38.71C3.67,39.21,3,39.65,3.66,39.69Z"/><path class="cls-1" d="M88.68,47c2.62-.08,2.13-.22-2.56-.76-7.87-.91-17.37-1.28-16.8-.66.26.28,2.54.72,5.08,1h0A99.48,99.48,0,0,0,88.68,47Z"/><path class="cls-1" d="M106,6.31c-3.66.67,8.68.45,12.91-.23,2.56-.41,1.83-.49-3.54-.38A86.61,86.61,0,0,0,106,6.31Z"/><path class="cls-1" d="M120.94,72.54a1.26,1.26,0,0,0-1.24-.09c-.52.19-.37.35.38.4S121.14,72.76,120.94,72.54Z"/><path class="cls-1" d="M116.92,72.36c-3.28-.48-10.5-.87-10.21-.55a19.91,19.91,0,0,0,4.62.83C115.38,73.08,120.22,72.84,116.92,72.36Z"/></g></g></svg>
