<svg id="レイヤー_2" data-name="レイヤー 2" xmlns="http://www.w3.org/2000/svg" viewBox="0 0 68.73 68.73"><defs><style>.cls-1{fill:#020202;}</style></defs><path class="cls-1" d="M50.38,11.5A17.26,17.26,0,1,0,67.64,28.76,17.28,17.28,0,0,0,50.38,11.5Zm9.35,15.68v3.66h-7v1.69h7v3.66h-7v3.3H48v-3.3H41V32.53h7V30.84H41V27.18h5.19L40.86,18.6h5.22l4.3,6.69,4.28-6.69h5.21l-5.49,8.58Z" transform="translate(-7.43 -3.27)"/><path class="cls-1" d="M68.61,10.82A25.76,25.76,0,0,0,30,44.77l-3.15,3.15a5.19,5.19,0,0,0-5,1.34L9,62.13a5.23,5.23,0,0,0,0,7.41l.92.93a5.25,5.25,0,0,0,7.42,0L30.17,57.6a5.19,5.19,0,0,0,1.34-5l3.15-3.15a25.76,25.76,0,0,0,34-38.61ZM64.8,43.45a20.39,20.39,0,1,1,6-14.41A20.37,20.37,0,0,1,64.8,43.45Z" transform="translate(-7.43 -3.27)"/></svg>