<svg id="レイヤー_1" data-name="レイヤー 1" xmlns="http://www.w3.org/2000/svg" viewBox="0 0 83.2 69.09"><defs><style>.cls-1{fill:#020202;}</style></defs><path class="cls-1" d="M84.44,21.61a1.1,1.1,0,0,0-.78-.32H60.18V4a1.13,1.13,0,0,0-1.1-1.1H27.25a1.09,1.09,0,0,0-.78.33,1.06,1.06,0,0,0-.32.77V21.29H2.66a1.06,1.06,0,0,0-.77.32,1.11,1.11,0,0,0-.33.78V70.9A1.11,1.11,0,0,0,2.66,72h29.7V55.33a1.12,1.12,0,0,1,.32-.78,1.1,1.1,0,0,1,.78-.32h19.4a1.1,1.1,0,0,1,.78.32,1.12,1.12,0,0,1,.32.78V72h29.7a1.09,1.09,0,0,0,1.1-1.1V22.39A1.14,1.14,0,0,0,84.44,21.61ZM19.94,40a1.12,1.12,0,0,1-.32.78,1.1,1.1,0,0,1-.78.32H11.21a1.09,1.09,0,0,1-1.1-1.1V34a1.1,1.1,0,0,1,.32-.78,1.12,1.12,0,0,1,.78-.32h7.63a1.09,1.09,0,0,1,1.1,1.1ZM38.7,40a1.09,1.09,0,0,1-.33.78,1.06,1.06,0,0,1-.77.32H30a1.09,1.09,0,0,1-1.1-1.1V34a1.1,1.1,0,0,1,.32-.78,1.12,1.12,0,0,1,.78-.32H37.6A1.11,1.11,0,0,1,38.7,34Zm4.46-18.74a5.95,5.95,0,1,1,6-5.95A6,6,0,0,1,43.16,21.24ZM57.46,40a1.12,1.12,0,0,1-.32.78,1.1,1.1,0,0,1-.78.32H48.73a1.09,1.09,0,0,1-1.1-1.1V34a1.1,1.1,0,0,1,.32-.78,1.12,1.12,0,0,1,.78-.32h7.63a1.09,1.09,0,0,1,1.1,1.1Zm18.76,0a1.11,1.11,0,0,1-1.11,1.1H67.49a1.09,1.09,0,0,1-1.1-1.1V34a1.1,1.1,0,0,1,.32-.78,1.12,1.12,0,0,1,.78-.32h7.62a1.12,1.12,0,0,1,.78.32,1.11,1.11,0,0,1,.33.78Z" transform="translate(-1.56 -2.91)"/></svg>