<svg id="レイヤー_3" data-name="レイヤー 3" xmlns="http://www.w3.org/2000/svg" viewBox="0 0 83.79 71.18"><defs><style>.cls-1{fill:none;stroke:#000;stroke-miterlimit:10;stroke-width:4.36px;}</style></defs><circle cx="22.03" cy="32.98" r="8.95" transform="translate(-17.51 41) rotate(-72.11)"/><path d="M44.42,40.8a4,4,0,0,0-1.48,1.9,26.08,26.08,0,0,1-3.11,5.52c-.71-.61-1.57-1.43-2.27-2.1-.94-.89-2-1.87-3.09-2.87a3.93,3.93,0,0,0-2.1-1v0h-.56a2.43,2.43,0,0,0-.27,0H12.33c-.1,0-.21,0-.32,0h-.34v0a3.91,3.91,0,0,0-2.32,1.18c-1.94,2-3.43,5.2-4.88,8.26C3.94,52.88,3.42,54,2.89,55c-2.4,4.56-1.36,9.85-.67,13.34.15.78.31,1.58.34,2a4,4,0,0,0,4,3.68h.3a4,4,0,0,0,3.67-4.27A26.06,26.06,0,0,0,10,66.8c-.5-2.54-1.18-6-.09-8.1.58-1.1,1.15-2.32,1.73-3.55v18.1h20.7V52.17C34.82,54.5,37.5,57,40.31,57a5.21,5.21,0,0,0,3.12-1.1,9.35,9.35,0,0,0,1-.85l2.14-2.53a34,34,0,0,0,3.86-7,4,4,0,0,0-.13-3L56.7,32l-1.82-1.13-6.06,9.82a3.94,3.94,0,0,0-.77-.38,4.08,4.08,0,0,0-1.49-.24Z" transform="translate(-1.4 -2.82)"/><rect class="cls-1" x="3.6" y="2.18" width="78" height="45.5"/></svg>