<svg xmlns="http://www.w3.org/2000/svg" viewBox="0 0 22 21.4"><defs><style>.cls-1{fill:#e6b2b2;}</style></defs><title>icon_title_menu</title><g id="レイヤー_2" data-name="レイヤー 2"><g id="レイヤー_1-2" data-name="レイヤー 1"><g id="レイヤー_2-2" data-name="レイヤー 2"><g id="レイヤー_1-2-2" data-name="レイヤー 1-2"><g id="レイヤー_2-2-2" data-name="レイヤー 2-2"><g id="レイヤー_1_画像" data-name="レイヤー 1 画像"><path class="cls-1" d="M19.2,14c.91,2.86.35,5-1.61,6.43S13.42,21.65,11,20C8.73,21.68,6.34,22,4,20.07,2.29,18.68,1.9,16.56,2.79,14l-.9-.69A5.06,5.06,0,0,1,.29,7.69,4.89,4.89,0,0,1,5,4.33a1.1,1.1,0,0,0,1.28-.9h0A5,5,0,0,1,11,0a5.12,5.12,0,0,1,4.82,3.46c.18.53.29.86,1,.87a5,5,0,0,1,5,3.52,5,5,0,0,1-2.13,5.81Zm-7.47-3.86.61-2.49-.44-.13L11,9.88l-1-2.4-.43.15.62,2.47L8.08,8.78l-.25.38,2,1.63L7.24,11v.53l2.55.12-2,1.55.28.37,2.2-1.36-.63,2.49.45.13L11,12.44l.94,2.42.45-.16-.61-2.45L14,13.58l.25-.38-2-1.6,2.52-.21v-.47H12.4l-.05-.26,1.84-1.52-.26-.36Z"/></g></g></g></g></g></g></svg>