<svg xmlns="http://www.w3.org/2000/svg" viewBox="0 0 30 18.81"><defs><style>.cls-1{fill:#a6ddc4;}</style></defs><title>icon_title_others</title><g id="レイヤー_2" data-name="レイヤー 2"><g id="レイヤー_1-2" data-name="レイヤー 1"><g id="レイヤー_2-2" data-name="レイヤー 2"><g id="レイヤー_1-2-2" data-name="レイヤー 1-2"><g id="レイヤー_2-2-2" data-name="レイヤー 2-2"><g id="レイヤー_1_画像" data-name="レイヤー 1 画像"><path class="cls-1" d="M15.41,17.33l.75.8c-.91.91-1.49.9-2.36,0l.81-.76c-2-1.2-3.91-2.4-5.88-3.46C6,12.44,3.3,11.09.58,9.73-.16,9.36-.11,9,.27,8.34A16.52,16.52,0,0,1,15.27,0a16.36,16.36,0,0,1,14.29,8.1c.68,1.07.62,1.2-.51,1.78-2.56,1.31-5.15,2.57-7.68,3.93C19.36,14.92,17.44,16.13,15.41,17.33ZM14.89,15h.23c.19-1.4.37-2.8.57-4.25H14.26C14.48,12.26,14.68,13.65,14.89,15Zm1.29-4.3c-.22,1.54-.43,3-.64,4.44h.21c.59-1.32,1.17-2.64,1.8-4.06Zm-2.37,0-1.38.47c.59,1.33,1.15,2.56,1.7,3.8l.26-.09Zm-.75,5.19.15-.19-2.75-3.27L9.6,13.58Zm3.24-.78.22.18,2.66-3.16L18,11.39Zm-5.49-3,2.72,3.24.21-.14L12,11.35Zm6.1,3.41.22.21,3.27-2.21-.9-1.1Z"/></g></g></g></g></g></g></svg>