<svg xmlns="http://www.w3.org/2000/svg" viewBox="0 0 30 17.75"><defs><style>.cls-1{fill:#8fb3d7;}</style></defs><title>icon_title_news</title><g id="レイヤー_2" data-name="レイヤー 2"><g id="レイヤー_1-2" data-name="レイヤー 1"><g id="レイヤー_2-2" data-name="レイヤー 2"><g id="レイヤー_1-2-2" data-name="レイヤー 1-2"><g id="レイヤー_2-2-2" data-name="レイヤー 2-2"><g id="レイヤー_1_画像" data-name="レイヤー 1 画像"><path class="cls-1" d="M0,10.48c.15-.37.3-.74.43-1.12,1.16-3.23,4-4.76,8-4.36,1.14-3.1,3.29-5,6.72-5,3.26.07,5.32,2,6.34,4.81a25.47,25.47,0,0,1,3.59.32,6.64,6.64,0,0,1,1.15,12.4,2.58,2.58,0,0,1-1.71.13,31,31,0,0,0-19.11,0,2.39,2.39,0,0,1-1.6-.12C1.68,16.67.68,14.79,0,12.68Zm8.76,2.35C8.11,11.38,8,9.49,6,8.85,5.73,10.34,6.48,11.42,8.76,12.83Zm6-1.46h.59c.12-1.37.27-2.74.32-4.11,0-.23-.43-.47-.66-.71-.19.23-.56.47-.55.7,0,1.38.15,2.79.26,4.12Zm6.39,1.33.47.33c.81-.93,1.68-1.83,2.42-2.81.2-.26,0-.8,0-1.21-.38.15-1,.19-1.13.47-.67,1-1.22,2.14-1.8,3.22Z"/></g></g></g></g></g></g></svg>